<svg width="57" height="64" viewBox="0 0 57 64" fill="none" xmlns="http://www.w3.org/2000/svg"><path d="M37.931 56.851a.5.5 0 0 0 .615.35l4.338-1.198a.5.5 0 1 0-.266-.964l-3.856 1.064-1.064-3.855a.5.5 0 0 0-.964.266l1.197 4.337zm6.07-27.85l.447-.224L44 29zM.5 18l.014.5H.52a2.777 2.777 0 0 0 .118-.003l.369-.007c.324-.005.8-.01 1.407-.011l-.002-1a106.566 106.566 0 0 0-1.796.018l-.097.002H.495L.49 17.5H.487L.5 18zm5.78.525c1.159.028 2.453.073 3.846.142l.05-1a158.883 158.883 0 0 0-3.872-.142l-.024 1zm7.697.38c1.243.093 2.53.207 3.84.344l.104-.995c-1.32-.138-2.617-.252-3.869-.346l-.075.997zm7.661.808c1.268.177 2.54.38 3.798.61l.18-.985a92.419 92.419 0 0 0-3.84-.615l-.138.99zm7.555 1.397c1.271.304 2.507.642 3.69 1.019l.303-.953a53.351 53.351 0 0 0-3.76-1.039l-.233.973zm7.265 2.356c1.224.54 2.342 1.134 3.327 1.79l.554-.834c-1.042-.692-2.212-1.313-3.477-1.871l-.404.915zm6.105 4.236c.394.484.725.99.99 1.521l.895-.446a9.22 9.22 0 0 0-1.11-1.706l-.775.631zm.99 1.521c.254.51.464 1.05.633 1.614l.958-.287a11.12 11.12 0 0 0-.696-1.773l-.895.446zm1.177 5.081a22.345 22.345 0 0 1-.162 3.558l.992.12a23.34 23.34 0 0 0 .17-3.718l-1 .04zm-.796 7.092a45.949 45.949 0 0 1-.96 3.475l.954.302c.366-1.155.7-2.347.98-3.551l-.974-.226zm-2.16 6.882a69.871 69.871 0 0 1-1.396 3.345l.913.408a70.844 70.844 0 0 0 1.415-3.392l-.933-.36zm-2.956 6.611a55.204 55.204 0 0 1-.836 1.577l-.003.004v.001l.434.247.435.247.001-.002.004-.006a56.096 56.096 0 0 0 .857-1.614l-.892-.454z" fill="#2C2C39"/></svg>