<svg width="170" height="50" viewBox="0 0 170 50" fill="none" xmlns="http://www.w3.org/2000/svg"><path d="M168.235 22.417a.5.5 0 0 0 .206-.676l-2.113-3.973a.5.5 0 0 0-.883.47l1.879 3.531-3.532 1.879a.5.5 0 0 0 .47.883l3.973-2.114zm-85.275-.441l.382-.322-.382.322zM2.5 42.5l-.065.496h.006L2.46 43l.072.01.28.035c.247.031.612.077 1.085.134l.12-.993a201.916 201.916 0 0 1-1.357-.169l-.07-.009-.018-.002h-.006L2.5 42.5zm4.418 1.028c.887.1 1.891.208 2.998.322l.103-.994a397.325 397.325 0 0 1-2.99-.322l-.111.994zm6 .623c.957.092 1.965.187 3.019.281l.09-.996a441.61 441.61 0 0 1-3.012-.28l-.096.995zm6.031.54c.97.08 1.97.16 2.994.237l.075-.997a408.252 408.252 0 0 1-2.986-.236l-.083.996zm6.004.454c.99.068 2 .133 3.025.195l.06-.998a372.42 372.42 0 0 1-3.017-.195l-.068.998zm6.05.367c.991.052 1.995.1 3.008.145l.044-.999a335.74 335.74 0 0 1-3-.145l-.053.999zm6.031.265c1.003.035 2.013.066 3.026.092l.026-1a309.81 309.81 0 0 1-3.017-.091l-.035 1zm6.045.153c1.008.015 2.017.024 3.026.028l.003-1c-1.005-.004-2.01-.013-3.014-.028l-.015 1zm6.047.019c1.013-.01 2.024-.026 3.03-.05l-.024-1c-1 .024-2.007.04-3.016.05l.01 1zm6.055-.145c1.012-.04 2.016-.088 3.01-.145l-.057-.998c-.988.057-1.986.105-2.992.144l.039 1zm6.045-.35c1.023-.08 2.031-.17 3.023-.273l-.102-.995c-.984.102-1.984.192-2.999.271l.078.997zm6.025-.624a85.844 85.844 0 0 0 2.993-.448l-.165-.986c-.961.162-1.949.309-2.96.442l.132.992zm5.995-1.019c1.027-.22 2.018-.46 2.967-.722l-.266-.964c-.928.256-1.9.492-2.91.708l.209.978zm5.883-1.645a26.984 26.984 0 0 0 2.829-1.2l-.446-.895a26 26 0 0 1-2.724 1.155l.341.94zm5.477-2.801c.885-.657 1.641-1.38 2.244-2.176l-.796-.604c-.537.707-1.221 1.366-2.044 1.977l.596.803zm3.64-5.048c.247-.99.297-2.049.139-3.176l-.99.14c.142 1.01.094 1.939-.119 2.795l.97.241zm-.727-6.2a19.51 19.51 0 0 0-1.426-2.726l-.85.528a18.525 18.525 0 0 1 1.354 2.584l.922-.387zm-3.163-5.209c-.318-.411-.656-.83-1.014-1.254l-.765.644c.35.415.679.822.988 1.222l.791-.612zm-1.014-1.254a42.775 42.775 0 0 1-.972-1.195l-.787.616c.312.398.643.806.994 1.223l.765-.644zm-2.62-3.497a17.774 17.774 0 0 1-1.356-2.482l-.917.4a18.76 18.76 0 0 0 1.432 2.623l.84-.541zm-2.09-5.147c-.08-.98.113-1.796.526-2.484l-.857-.515c-.532.886-.76 1.915-.666 3.08l.997-.08zm2.456-4.238c.726-.404 1.605-.74 2.63-1.01l-.255-.967c-1.082.285-2.045.648-2.861 1.104l.486.873zm5.451-1.54c.893-.115 1.85-.195 2.863-.244l-.049-.999c-1.035.05-2.017.132-2.94.25l.126.992zm5.74-.3a71.2 71.2 0 0 1 2.895.077l.046-.999a73.948 73.948 0 0 0-2.934-.078l-.006 1zm5.807.257c.953.073 1.929.16 2.925.262l.101-.995c-1.003-.102-1.987-.19-2.95-.264l-.076.997zm5.798.585c.951.116 1.916.242 2.893.379l.138-.99c-.982-.138-1.953-.265-2.91-.382l-.121.993zm5.796.807c.947.146 1.903.3 2.865.462l.166-.986c-.967-.162-1.927-.318-2.878-.465l-.153.989zm5.747.963c.953.17 1.91.348 2.871.53l.187-.982c-.964-.183-1.925-.36-2.882-.533l-.176.985zm5.737 1.089c.954.19 1.909.385 2.863.584l.204-.98c-.957-.199-1.915-.394-2.872-.585l-.195.98zm5.721 1.19c.955.206 1.907.415 2.855.627l.218-.976c-.95-.212-1.905-.422-2.862-.629l-.211.978zm5.7 1.273c.958.22 1.91.443 2.854.666l.23-.973a470.53 470.53 0 0 0-2.859-.668l-.225.975zm5.686 1.345c.96.233 1.908.466 2.844.699l.242-.97a444.58 444.58 0 0 0-2.85-.7l-.236.971zm5.686 1.413c.955.243 1.893.483 2.812.722l.251-.968a583.97 583.97 0 0 0-2.817-.723l-.246.97zm5.651 1.465c.973.258 1.92.51 2.837.758l.261-.966a616 616 0 0 0-2.843-.758l-.255.966zm5.656 1.525c.98.269 1.917.529 2.805.777l.27-.963c-.89-.249-1.828-.509-2.81-.779l-.265.965zm5.615 1.57c1.048.298 1.997.571 2.832.814l.279-.96c-.837-.244-1.787-.517-2.837-.816l-.274.962zm5.599 1.627l1.024.306.263.08.067.02.016.005.005.002h.001l.146-.478.146-.478h-.002l-.004-.002-.017-.005-.067-.02-.265-.081-1.028-.308-.285.959z" fill="#B8B8B8"/></svg>