<svg width="53" height="49" viewBox="0 0 53 49" fill="none" xmlns="http://www.w3.org/2000/svg"><path d="M50.187 45.807a.5.5 0 0 0 .081-.702l-2.795-3.526a.5.5 0 1 0-.784.62l2.485 3.135-3.135 2.485a.5.5 0 0 0 .621.784l3.527-2.796zm2.461-41.784l-.043-.498H52.6l-.013.002-.049.004a56.286 56.286 0 0 0-.928.09l.1.994a98.539 98.539 0 0 1 .965-.092l.012-.001h.003l-.043-.499zm-3.08-.183c-.6.069-1.279.15-2.025.243l.124.992a188.95 188.95 0 0 1 2.015-.241l-.114-.994zm-4.05.506c-.644.088-1.321.182-2.028.285l.144.99c.703-.103 1.377-.197 2.018-.284l-.134-.99zm-4.05.59c-.656.101-1.329.21-2.018.324l.164.986c.685-.114 1.355-.221 2.007-.323l-.154-.988zm-4.032.67c-.66.116-1.33.238-2.01.367l.186.982c.675-.127 1.343-.249 1.999-.365l-.175-.985zm-4.017.757c-.662.134-1.33.272-2.003.416l.21.978c.668-.143 1.332-.28 1.99-.413l-.197-.98zm-4 .858c-.663.152-1.328.309-1.992.471l.237.972c.66-.162 1.32-.317 1.977-.468l-.223-.975zm-3.976.973c-.66.173-1.32.352-1.976.536l.271.963a112.7 112.7 0 0 1 1.959-.532l-.254-.967zM21.5 9.304c-.658.2-1.31.406-1.956.618l.313.95c.637-.21 1.283-.413 1.933-.61l-.29-.957zm-3.896 1.283c-.651.233-1.293.472-1.922.72l.365.93c.62-.243 1.252-.479 1.894-.709l-.337-.941zm-3.821 1.502a48.46 48.46 0 0 0-1.87.857l.437.9a47.41 47.41 0 0 1 1.83-.84l-.397-.917zm-3.702 1.804c-.62.342-1.214.694-1.782 1.057l.54.842c.547-.35 1.123-.691 1.724-1.023l-.482-.876zm-3.49 2.25c-.571.439-1.104.893-1.593 1.363l.694.72c.458-.44.962-.87 1.508-1.29l-.608-.793zm-3.004 2.933a10.54 10.54 0 0 0-1.123 1.809l.9.434a9.554 9.554 0 0 1 1.017-1.636l-.794-.607zm-1.814 3.852c-.07.354-.117.714-.14 1.08l.998.061c.02-.32.061-.636.123-.946l-.98-.195zm-.14 1.08a7.97 7.97 0 0 0 .005 1.06l.998-.072a6.936 6.936 0 0 1-.005-.927l-.998-.061zm.433 3.116c.224.645.53 1.269.904 1.87l.849-.528a8.35 8.35 0 0 1-.809-1.671l-.944.328zm2.144 3.515c.438.494.925.972 1.454 1.435l.659-.753a15.35 15.35 0 0 1-1.366-1.346l-.747.664zm3.044 2.694c.53.384 1.09.756 1.675 1.118l.526-.85a27.153 27.153 0 0 1-1.616-1.078l-.585.81zm3.41 2.122c.575.312 1.169.616 1.778.912l.437-.9a42.715 42.715 0 0 1-1.737-.89l-.477.878zm3.589 1.746c.6.264 1.214.52 1.837.77l.372-.927a61.048 61.048 0 0 1-1.807-.758l-.402.915zm3.695 1.486c.618.229 1.244.45 1.875.667l.324-.946a82.153 82.153 0 0 1-1.853-.659l-.346.938zm3.764 1.292c.63.2 1.264.396 1.9.586l.286-.959c-.63-.188-1.258-.381-1.882-.58l-.304.953zm3.807 1.137c.64.179 1.279.352 1.916.52l.255-.967a128.58 128.58 0 0 1-1.902-.516l-.269.963zm3.841 1.012c.648.16 1.292.316 1.93.465l.229-.973c-.635-.149-1.275-.303-1.918-.463l-.241.97zm3.866.906c.656.145 1.303.284 1.94.418l.205-.98a163.08 163.08 0 0 1-1.929-.414l-.216.976zm3.883.813c.665.132 1.316.257 1.948.375l.184-.983a187.96 187.96 0 0 1-1.938-.373l-.194.981zm3.9.73c.683.12 1.337.232 1.959.335l.163-.987c-.618-.102-1.27-.213-1.947-.333l-.174.985zm3.913.65c.723.111 1.38.21 1.962.293l.143-.99a179.14 179.14 0 0 1-1.95-.292l-.154.988zm3.936.565l.712.09.185.023.047.005.013.002h.003l.058-.496.058-.497h-.004l-.011-.002-.046-.005a90.68 90.68 0 0 1-.886-.111l-.13.991z" fill="#B1B1B1"/></svg>