<svg width="187" height="187" viewBox="0 0 187 187" fill="none" xmlns="http://www.w3.org/2000/svg"><circle cx="93.5" cy="93.5" r="93" stroke="url(#a)" stroke-dasharray="3 3"/><g clip-path="url(#b)"><path d="M54.948 8.893c-.329-.594-1.135-.827-1.73-.498l-4.081 2.256-6.994-3.886-1.484.821 5.138 4.912-4.082 2.257-1.934-.87-1.114.616 2.179 2.188.694 3.008 1.113-.616.293-2.1 4.082-2.257 1.427 6.964 1.484-.82.429-7.99 4.082-2.257c.594-.328.826-1.135.498-1.728z" fill="url(#c)"/></g><defs><linearGradient id="a" x1="93.5" x2="93.5" y2="187" gradientUnits="userSpaceOnUse"><stop stop-color="#292931"/><stop offset="1" stop-color="#45454F"/></linearGradient><linearGradient id="c" x1="43.628" y1="5.945" x2="51.424" y2="20.047" gradientUnits="userSpaceOnUse"><stop stop-color="#292931"/><stop offset="1" stop-color="#45454F"/></linearGradient><clipPath id="b"><path fill="#fff" transform="rotate(-28.935 36.75 -64.926)" d="M0 0h16.962v16.962H0z"/></clipPath></defs></svg>