<svg width="17" height="9" viewBox="0 0 17 9" fill="none" xmlns="http://www.w3.org/2000/svg"><path d="M1.73 7.713a.399.399 0 0 0 .309.733l5.573-1.854L6.57 8.293a.323.323 0 0 0 .424.455l1.093-.568a.321.321 0 0 0 .085-.063l3.237-3.382 3.996-2.085c1.514-.816 1.338-1.443 1.249-1.616-.07-.134-.226-.313-.571-.408-.35-.096-.824-.089-1.448.023a1.812 1.812 0 0 1-.445.031c-.428-.011-.718.017-2.158.766L4.152 5.54 1.098 3.955a.399.399 0 0 0-.367 0l-.515.267a.399.399 0 0 0-.127.604l2.12 2.641-.477.246z" fill="#fff"/></svg>