<svg width="21" height="21" viewBox="0 0 21 21" xmlns="http://www.w3.org/2000/svg"><path d="M20.627 1.993c-.23-.144-.491-.202-.809-.173a3.222 3.222 0 0 0-1.445.607c-.376.289-.809.635-1.3 1.04l-.694.607c-.144.144-.289.26-.433.404-.145.116-.26.174-.434.145a4.748 4.748 0 0 0-.318-.087L9.79 2.513a12.234 12.234 0 0 0-.549-.173c-.404-.116-.693 0-.867.144-.317.232-.578.52-.751.838-.202.318-.144.665.145.925.115.116.23.202.317.26.983.694 1.994 1.358 2.977 2.052.376.26.722.491.982.81.058.086.116.144.174.23l-1.879 1.792c-.202.202-.404.376-.606.578-.03 0-.058-.029-.087-.029l-.318-.144c-.26-.116-.491-.26-.751-.376-.318-.145-.665-.116-.925.116-.145.115-.29.26-.434.404-.26.26-.289.578-.057.867.057.087.115.145.173.202l.55.694c.635.838 1.3 1.676 1.964 2.485a.82.82 0 0 0 .29.26c.115.058.346.202.635.116.347-.116.607-.347.722-.694.116-.289.145-.607.03-.953l-.059-.26-.173-.694c.78-.607 1.56-1.185 2.312-1.792l.376-.289.086.145c.203.318.376.636.492.982l1.329 3.41c.087.203.144.405.231.578.145.318.376.492.665.492a.77.77 0 0 0 .347-.087.58.58 0 0 0 .23-.116c.463-.23.752-.549.868-.982.086-.347.058-.665.029-.896l-.694-5.057c-.058-.405-.116-.838-.173-1.243-.03-.202.029-.318.173-.433l.607-.52c.491-.405.954-.81 1.445-1.214.404-.347.665-.665.896-1.012.173-.26.346-.578.433-.924.145-.376 0-.78-.318-1.012zm-.23.896a3.28 3.28 0 0 1-.377.78c-.173.29-.433.578-.78.867-.462.405-.953.81-1.445 1.214l-.578.491c-.318.231-.462.578-.404.983.058.404.115.809.173 1.242l.694 5.058c.029.289.029.49-.03.664-.086.26-.26.462-.548.607-.058.029-.116.058-.203.087-.173.058-.23.029-.289-.116-.086-.173-.144-.376-.23-.578l-1.272-3.41c-.145-.376-.347-.722-.55-1.07l-.173-.288-.26-.376-.896.665c-.809.607-1.618 1.243-2.398 1.85-.202.144-.174.317-.145.433.058.26.145.52.203.78l.057.26c.058.231.058.434-.029.607a.61.61 0 0 1-.404.347s-.058 0-.145-.058a.348.348 0 0 1-.144-.144 145.02 145.02 0 0 1-1.936-2.486l-.55-.693c-.057-.058-.086-.116-.144-.203-.029-.028-.029-.057-.029-.057l.058-.058c.116-.116.26-.26.376-.347.086-.087.202-.087.318-.029.26.116.49.231.75.376l.319.144.173.087c.145.087.318.058.463-.058.23-.23.462-.433.693-.664l1.994-1.879.231-.23-.144-.203c-.03-.058-.058-.087-.087-.145-.087-.115-.144-.23-.231-.318-.318-.375-.694-.664-1.098-.924a183.264 183.264 0 0 1-2.977-2.052c-.086-.058-.173-.116-.26-.202-.086-.087-.086-.116-.029-.174.145-.26.376-.491.636-.693.058-.058.145-.087.347-.03.202.059.376.116.52.174l5.404 2.023c.144.058.289.087.405.116.317.057.635-.03.895-.26.145-.145.29-.26.434-.405l.693-.607c.492-.404.896-.751 1.272-1.04.347-.26.751-.434 1.185-.492.144-.028.26 0 .375.058.116.03.174.203.116.376zM7.68 12.918a.31.31 0 0 0-.405-.058L.108 18.322a.31.31 0 0 0-.058.404.263.263 0 0 0 .232.116.413.413 0 0 0 .173-.058l7.167-5.462c.144-.086.144-.26.058-.404zm.952 1.356a.35.35 0 0 0-.434-.058L3.835 17.57a.31.31 0 0 0-.058.404.263.263 0 0 0 .231.116.41.41 0 0 0 .174-.058l4.392-3.352a.31.31 0 0 0 .058-.405zM3.49 18.176a.31.31 0 0 0-.405-.058l-.723.549a.31.31 0 0 0-.058.404.263.263 0 0 0 .232.116.413.413 0 0 0 .173-.058l.722-.549a.31.31 0 0 0 .058-.404zm-.954-3.236a.31.31 0 0 0-.405-.058l-.722.55a.31.31 0 0 0-.058.404.263.263 0 0 0 .231.116.41.41 0 0 0 .174-.058l.722-.55a.31.31 0 0 0 .058-.404zm4.189-3.15a.311.311 0 0 0-.404-.058l-3.44 2.6a.31.31 0 0 0-.057.405c.058.058.144.116.231.116a.404.404 0 0 0 .173-.058l3.44-2.6a.31.31 0 0 0 .057-.405z"/></svg>