<svg width="17" height="17" viewBox="0 0 17 17" xmlns="http://www.w3.org/2000/svg"><path d="M16.654 12.554a.29.29 0 0 0 .242-.034.233.233 0 0 0 .104-.207v-1.244c0-.23-.104-.415-.311-.553L10.228 6.68c-.208-.115-.311-.3-.311-.552v-4.32c0-.23-.046-.449-.139-.656C9.525.507 9.168.15 8.708.081A.652.652 0 0 0 8.5.046c-.07 0-.15.012-.242.035a.284.284 0 0 0-.086.017.944.944 0 0 0-.121.052.94.94 0 0 0-.45.31 2.27 2.27 0 0 0-.31.45l-.104.242c-.07.207-.104.426-.104.656v4.32c0 .253-.103.437-.31.552L.31 10.516c-.207.138-.311.322-.311.553v1.243c0 .093.035.162.104.208a.29.29 0 0 0 .242.034l6.392-2.073c.092-.046.173-.04.242.018a.277.277 0 0 1 .103.224v3.352c0 .253-.092.449-.276.587l-.864.622c-.184.138-.276.334-.276.587v.83c0 .092.034.161.103.207a.29.29 0 0 0 .242.035l2.142-.622c.23-.07.461-.07.692 0l2.142.622a.29.29 0 0 0 .242-.035.232.232 0 0 0 .103-.207v-.83c0-.253-.092-.449-.276-.587l-.864-.622c-.184-.138-.276-.334-.276-.587v-3.352c0-.115.034-.196.103-.242.07-.046.15-.046.242 0l6.392 2.073z"/></svg>