<svg width="20" height="20" viewBox="0 0 20 20" xmlns="http://www.w3.org/2000/svg"><path d="M2.384 13.37a.35.35 0 0 0-.171.458l.786 1.688a.35.35 0 0 0 .462.171l5.942-2.775-.539 5.627a.35.35 0 0 0 .115.294c.261.216.586.338.923.35.094 0 .186-.012.277-.035.482-.126.856-.556 1.111-1.29l2.338-6.924 4.631-2.16c1.364-.636 2.066-1.926 1.594-2.933a1.77 1.77 0 0 0-1.366-.954 3.24 3.24 0 0 0-1.909.294l-5.344 2.506-5.746-2.248c-.724-.272-1.297-.265-1.699.025a1.422 1.422 0 0 0-.52 1.129.35.35 0 0 0 .15.276l3.869 2.66-2.216 1.048-3.716-.944a.35.35 0 0 0-.388.168l-.926 1.667a.349.349 0 0 0 .182.493l2.75 1.136-.59.273zm1.6-6.952a.598.598 0 0 1 .21-.378c.2-.143.563-.122 1.05.06l5.116 1.996-2.335 1.09-4.04-2.768zM.84 11.465l.608-1.08 3.576.888a.35.35 0 0 0 .23-.021l11.622-5.428a2.557 2.557 0 0 1 1.493-.238c.358.033.676.24.853.552.293.63-.283 1.549-1.259 2.003l-4.026 1.888.245-.724a.355.355 0 1 0-.675-.224l-2.877 8.56c-.171.486-.384.776-.622.839a.59.59 0 0 1-.426-.08l.699-7.34a.351.351 0 1 0-.7-.067l-.107 1.122-5.999 2.796-.492-1.048.985-.462a.35.35 0 0 0 0-.64L.84 11.466z"/></svg>