<svg width="17" height="17" viewBox="0 0 17 17" xmlns="http://www.w3.org/2000/svg"><path d="M15.88 13.999c-1.44-1.431-2.17-3.126-2.17-5.035v-2.78c.013-2.12-1.412-3.526-2.637-4.085a6.212 6.212 0 0 0-1.08-.376v-.178a1.547 1.547 0 0 0-3.091 0v.205a6.12 6.12 0 0 0-.972.352c-1.354.623-2.725 2.127-2.737 4.08v2.782c0 1.974-.697 3.668-2.073 5.035a.31.31 0 0 0 .166.524l2.933.507c.547.094 1.05.171 1.529.235C6.288 16.322 7.347 17 8.504 17c1.158 0 2.217-.679 2.756-1.736.477-.064.978-.14 1.521-.235l2.933-.506a.309.309 0 0 0 .166-.524zM7.52 1.545a.928.928 0 0 1 1.855 0v.057a6.146 6.146 0 0 0-1.855.014v-.07zm.984 14.837a2.477 2.477 0 0 1-1.983-1.025c.69.071 1.335.107 1.98.107.647 0 1.293-.036 1.987-.108a2.478 2.478 0 0 1-1.984 1.026zm4.172-1.962c-.593.102-1.137.185-1.65.251h-.002c-.226.029-.447.054-.662.075l-.007.001c-.197.02-.39.036-.58.05l-.108.007c-.165.01-.328.02-.49.026-.034 0-.067.003-.1.004-.385.013-.764.013-1.148 0l-.103-.004c-.16-.007-.322-.015-.484-.026l-.116-.008a24.336 24.336 0 0 1-.565-.047l-.02-.002a24.584 24.584 0 0 1-.657-.075h-.002a37.536 37.536 0 0 1-1.657-.252l-2.368-.409c1.23-1.407 1.854-3.103 1.854-5.047v-2.78c.01-1.68 1.202-2.979 2.377-3.521.35-.161.712-.281 1.081-.366h.01a5.62 5.62 0 0 1 2.343-.022h.012c.403.084.8.211 1.182.386 1.14.521 2.286 1.812 2.275 3.521v2.782c0 1.865.673 3.599 1.952 5.048l-2.367.408z"/><path d="M10.43 3.505c-1.197-.547-2.664-.548-3.853.001-.679.313-1.83 1.228-1.839 2.675 0 .17.137.31.308.31h.001c.17 0 .309-.136.31-.306.007-1.137.933-1.866 1.478-2.118a4.092 4.092 0 0 1 3.338 0 .31.31 0 0 0 .258-.562z"/></svg>