<svg width="19" height="19" viewBox="0 0 19 19" xmlns="http://www.w3.org/2000/svg"><path d="M15.255 8.166a1.11 1.11 0 0 0-1.11 1.11v1.757c0 .155.127.282.283.282h.544v.983c0 .605-.478 1.1-1.075 1.128v-.462c0-.564-.354-1.046-.85-1.237.3-.284.497-.675.535-1.12l.416-4.889a1.747 1.747 0 0 0-1.737-1.89h-1.118v-.54h.543a1.15 1.15 0 0 0 1.148-1.148V1.112a1.15 1.15 0 0 0-1.148-1.15H7.388a1.15 1.15 0 0 0-1.149 1.15V2.14a1.15 1.15 0 0 0 1.149 1.148h.543v.54H6.813a1.747 1.747 0 0 0-1.737 1.89l.069.815a.282.282 0 0 0 .562-.048l-.07-.815a1.171 1.171 0 0 1 .307-.897c.226-.246.535-.381.869-.381h5.448c.334 0 .642.135.868.38.226.247.335.566.306.898l-.415 4.889a1.172 1.172 0 0 1-1.175 1.079H7.228a1.172 1.172 0 0 1-1.175-1.08l-.25-2.939a.282.282 0 0 0-.562.048l.25 2.94c.038.445.236.836.536 1.12-.497.191-.85.673-.85 1.237v.462A1.13 1.13 0 0 1 4.1 12.298v-.983h.545a.282.282 0 0 0 .282-.282V9.276a1.11 1.11 0 0 0-2.219 0v1.757c0 .155.126.282.282.282h.546v.983c0 .934.759 1.694 1.693 1.694h1.925c.128.539.613.94 1.19.94h.91v2.427H6.726c-.729 0-1.321.593-1.321 1.322 0 .155.126.282.282.282h5.687a.282.282 0 1 0 0-.564h-5.35a.758.758 0 0 1 .702-.475h5.62c.317 0 .59.196.702.475h-.545a.282.282 0 1 0 0 .564h.882a.282.282 0 0 0 .282-.282c0-.729-.593-1.322-1.322-1.322H9.82v-2.426h.91c.577 0 1.062-.402 1.19-.941h1.925c.933 0 1.693-.76 1.693-1.694v-.983h.545a.282.282 0 0 0 .282-.282V9.276a1.11 1.11 0 0 0-1.11-1.11zM6.803 2.14V1.112c0-.323.263-.585.585-.585h4.298c.322 0 .584.262.584.585V2.14a.585.585 0 0 1-.584.584H7.388a.585.585 0 0 1-.585-.584zm1.692 1.687v-.539h2.083v.54H8.495zM3.273 9.276a.546.546 0 0 1 1.09 0v1.474h-1.09V9.276zm2.468 3.688c0-.42.342-.762.762-.762h6.067c.42 0 .762.342.762.762v.463h-7.59v-.463zm4.987 1.405H8.345a.66.66 0 0 1-.595-.377h3.574a.66.66 0 0 1-.596.377zM15.8 10.75h-1.09V9.276a.546.546 0 0 1 1.09 0v1.474z"/><path d="M8.273 7.609a.77.77 0 0 0 0-1.539.77.77 0 0 0 0 1.539zm0-.974a.205.205 0 1 1 0 .41.205.205 0 0 1 0-.41zm2.527.974a.77.77 0 0 0 0-1.539.77.77 0 0 0 0 1.539zm0-.974a.205.205 0 1 1 0 .41.205.205 0 0 1 0-.41zM8.273 9.789a.77.77 0 1 0-.001-1.54.77.77 0 0 0 .001 1.54zm0-.975a.205.205 0 1 1 0 .411.205.205 0 0 1 0-.41zm2.527.975a.77.77 0 0 0 0-1.539.77.77 0 0 0 0 1.539zm0-.975a.205.205 0 1 1 0 .411.205.205 0 0 1 0-.41z"/></svg>