<svg width="21" height="21" viewBox="0 0 21 21" xmlns="http://www.w3.org/2000/svg"><path d="M19.422 13.14c-.276-1.604-1.637-2.549-2.73-3.058l-3.251-1.516L12 2.47 9.74 0l-.62 6.556-2.956-1.353-1.076-3.097-2.06-.96-.572 2.902c-.305.001-.67.078-.832.424-.255.546.125 1.341 1.13 2.363.788.801 1.788 1.548 2.548 1.903l11.631 5.423c.589.275 1.073.412 1.46.412.274 0 .5-.07.68-.207.226-.172.47-.525.349-1.226zm-.865.55c-.002.001-.247.174-1.264-.3L5.661 7.966c-.645-.3-1.519-.95-2.227-1.654-.72-.716-.985-1.206-1.03-1.41a1.62 1.62 0 0 1 .332.024l.403.06.515-2.61.748.35 1.077 3.1 4.376 2.002.552-5.838.816.892 1.484 6.28 3.626 1.691c1.321.617 2.079 1.435 2.25 2.432.043.25.008.379-.026.405zM7.02 12.648a1.213 1.213 0 0 0 .892-.281c.25-.21.404-.505.432-.83a1.224 1.224 0 0 0-2.003-1.043 1.22 1.22 0 0 0 .679 2.154zm-.263-1.25zm3.019 2.489a1.224 1.224 0 1 0-.787-2.158c-.25.21-.403.504-.432.83a1.22 1.22 0 0 0 1.219 1.328zm-.37-1.254a.369.369 0 0 1 .401-.337.369.369 0 0 1 .206.654.371.371 0 0 1-.608-.317zm6.426 4.077a1.217 1.217 0 0 0 1.217-1.116 1.224 1.224 0 1 0-2.154.68c.241.287.588.435.937.435zm-.24-1.507a.368.368 0 0 1 .523.046.369.369 0 0 1-.045.523.372.372 0 0 1-.477-.569zm3.438 4.946H1.972V21h17.056v-.851z"/></svg>