<svg width="19" height="19" viewBox="0 0 19 19" xmlns="http://www.w3.org/2000/svg"><path d="M17.516 2.82h-.52a1.858 1.858 0 0 0-1.818-1.484c-.896 0-1.646.638-1.818 1.484h-2.042A1.858 1.858 0 0 0 9.5 1.336c-.896 0-1.646.638-1.818 1.484H5.677A1.858 1.858 0 0 0 3.86 1.336 1.86 1.86 0 0 0 2.042 2.82h-.557C.666 2.82 0 3.486 0 4.305V16.18c0 .818.666 1.484 1.484 1.484h16.032c.818 0 1.484-.666 1.484-1.484V4.305c0-.819-.666-1.485-1.484-1.485zm-2.338-.742c.484 0 .896.31 1.05.742h-2.1a1.115 1.115 0 0 1 1.05-.742zm-5.678 0c.484 0 .897.31 1.05.742h-2.1a1.115 1.115 0 0 1 1.05-.742zm-5.64 0c.483 0 .896.31 1.049.742h-2.1a1.115 1.115 0 0 1 1.05-.742zM18.257 16.18c0 .41-.333.742-.742.742H1.484a.743.743 0 0 1-.742-.742V7.273h17.516v8.907zM.742 6.53V4.305c0-.41.333-.742.742-.742h16.032c.409 0 .742.332.742.742V6.53H.742z"/><path d="M5.762 5.424H1.865a.371.371 0 1 1 0-.742h3.897a.371.371 0 1 1 0 .742zm1.336 0a.371.371 0 0 1 0-.742.371.371 0 1 1 0 .742zM9.5 16.031a3.938 3.938 0 0 1-3.934-3.933A3.938 3.938 0 0 1 9.5 8.164a3.938 3.938 0 0 1 3.934 3.934A3.938 3.938 0 0 1 9.5 16.03zm0-7.125a3.195 3.195 0 0 0-3.191 3.192A3.195 3.195 0 0 0 9.5 15.289a3.195 3.195 0 0 0 3.191-3.191A3.195 3.195 0 0 0 9.5 8.906z"/><path d="M8.735 13.58a.37.37 0 0 1-.262-.109l-.696-.694a.371.371 0 1 1 .524-.525l.434.432 1.964-1.96a.371.371 0 0 1 .524.525l-2.226 2.222a.37.37 0 0 1-.262.109z"/></svg>