<svg width="17" height="17" viewBox="0 0 17 17" xmlns="http://www.w3.org/2000/svg"><path d="M16.15 1.133h-1.984v-.85A.283.283 0 0 0 13.883 0H11.9a.283.283 0 0 0-.284.283v.85H5.383v-.85A.283.283 0 0 0 5.1 0H3.116a.283.283 0 0 0-.283.283v.85H.85a.283.283 0 0 0-.284.284v15.3c0 .156.127.283.284.283h15.3a.283.283 0 0 0 .283-.283v-15.3a.283.283 0 0 0-.283-.284zM12.183.567H13.6v1.7h-1.417v-1.7zM3.4.567h1.416v1.7H3.4v-1.7zM1.133 1.7h1.7v.85c0 .157.127.283.283.283H5.1a.283.283 0 0 0 .283-.283V1.7h6.233v.85c0 .157.127.283.284.283h1.983a.283.283 0 0 0 .283-.283V1.7h1.7v2.55H1.133V1.7zm0 14.733V4.817h14.733v11.616H1.133z"/><path d="M10.766 6.517h-7.65v8.216h10.767V6.517h-3.117zm-1.983.566h1.983v1.984H8.783V7.083zm1.983 4.534H8.783V9.633h1.983v1.984zM6.233 9.633h1.983v1.984H6.233V9.633zm0-2.55h1.983v1.984H6.233V7.083zm-2.55 0h1.983v1.984H3.683V7.083zm0 2.55h1.983v1.984H3.683V9.633zm1.983 4.534H3.683v-1.984h1.983v1.984zm2.55 0H6.233v-1.984h1.983v1.984zm2.55 0H8.783v-1.984h1.983v1.984zm2.55 0h-1.983v-1.984h1.983v1.984zm0-2.55h-1.983V9.633h1.983v1.984zm0-4.534v1.984h-1.983V7.083h1.983z"/></svg>