<svg width="19" height="19" viewBox="0 0 19 19" xmlns="http://www.w3.org/2000/svg"><path d="M16.18 1.484h-1.114v-.37a1.115 1.115 0 0 0-2.226 0v.37h-2.227v-.37a1.115 1.115 0 0 0-2.226 0v.37H6.16v-.37a1.114 1.114 0 0 0-2.226 0v.37H2.82c-.614 0-1.113.5-1.113 1.114v15.289c0 .614.5 1.113 1.113 1.113h13.36c.614 0 1.113-.5 1.113-1.113V2.597c0-.613-.5-1.113-1.113-1.113zm-2.598-.37a.372.372 0 0 1 .742 0v1.484a.371.371 0 0 1-.742 0V1.113zm-4.453 0a.372.372 0 0 1 .742 0v1.484a.371.371 0 0 1-.742 0V1.113zm-4.453 0a.372.372 0 0 1 .742 0v1.484a.371.371 0 0 1-.742 0V1.113zM16.18 18.257H2.82a.372.372 0 0 1-.37-.371V5.195h1.113a.371.371 0 1 0 0-.742H2.449V2.598c0-.205.167-.371.371-.371h1.114v.37c0 .615.5 1.114 1.113 1.114.614 0 1.113-.5 1.113-1.113v-.371h2.227v.37c0 .615.5 1.114 1.113 1.114.614 0 1.113-.5 1.113-1.113v-.371h2.227v.37a1.115 1.115 0 0 0 2.226 0v-.37h1.114a.37.37 0 0 1 .37.37v1.856H6.532a.371.371 0 1 0 0 .742h10.02v12.692a.371.371 0 0 1-.371.37z"/><path d="M5.418 4.824a.371.371 0 1 0-.743 0 .371.371 0 0 0 .743 0zm10.02 11.949H13.21a.371.371 0 0 0 0 .743h2.226a.371.371 0 1 0 0-.743zm-3.711 0a.37.37 0 1 0-.001.742.37.37 0 0 0 0-.742zm1.139-2.793l-.93-3.09c1.01-.996 1.238-1.733 1.245-2.183.006-.314-.095-.59-.283-.779-.188-.188-.464-.288-.78-.283-.45.007-1.186.234-2.182 1.244l-3.09-.929a.371.371 0 0 0-.37.093l-.954.955a.371.371 0 0 0 .08.586l2.453 1.38-.783.832-1.038.08a.372.372 0 0 0-.234.108l-.874.873a.371.371 0 0 0 .1.596l1.436.7.7 1.437a.37.37 0 0 0 .596.1l.874-.874a.37.37 0 0 0 .108-.234l.08-1.038.833-.783 1.38 2.452a.37.37 0 0 0 .585.08l.955-.954a.37.37 0 0 0 .093-.37zm-1.227.453l-1.372-2.439a.37.37 0 0 0-.578-.088L8.407 13.11a.37.37 0 0 0-.115.242l-.081 1.045-.41.41-.528-1.084a.37.37 0 0 0-.17-.171l-1.084-.529.409-.408 1.045-.081a.37.37 0 0 0 .242-.116l1.205-1.282a.37.37 0 0 0-.088-.578L6.393 9.187l.452-.452 3.095.93a.37.37 0 0 0 .378-.102c.983-1.05 1.595-1.172 1.813-1.176.16-.004.226.05.242.066.016.016.069.081.066.242-.003.218-.125.83-1.176 1.814a.371.371 0 0 0-.102.377l.93 3.095-.452.452z"/></svg>