<svg width="19" height="19" viewBox="0 0 19 19" xmlns="http://www.w3.org/2000/svg"><path d="M17.358 3.117H1.642C.737 3.117 0 3.854 0 4.76v9.47c0 .906.737 1.643 1.642 1.643h15.716c.905 0 1.642-.737 1.642-1.643V4.76c0-.905-.737-1.642-1.642-1.642zm1.078 11.112a1.08 1.08 0 0 1-1.078 1.078H1.642A1.08 1.08 0 0 1 .564 14.23V4.76a1.08 1.08 0 0 1 1.078-1.077h15.716a1.08 1.08 0 0 1 1.078 1.077v9.47z"/><path d="M8.446 5.374H1.899a.282.282 0 0 0-.282.282v.677a.282.282 0 0 0 .565 0v-.395h5.982v6.886H2.182V7.462a.282.282 0 0 0-.565 0v5.644c0 .155.127.282.282.282h6.547a.282.282 0 0 0 .282-.282v-7.45a.282.282 0 0 0-.282-.282zm8.73.654h-7.073a.282.282 0 0 0 0 .564h7.073a.282.282 0 1 0 0-.564zm-.001 2.047h-1.58a.282.282 0 1 0 0 .565h1.58a.282.282 0 0 0 0-.565zm-7.073.565h4.365a.282.282 0 0 0 0-.565h-4.365a.282.282 0 1 0 0 .565zm7.074 1.483h-7.073a.282.282 0 1 0 0 .564h7.073a.282.282 0 0 0 0-.564zM13.94 12.17h-3.838a.282.282 0 1 0 0 .564h3.838a.282.282 0 0 0 0-.564z"/><path d="M3.197 12.202a.282.282 0 0 0 .565 0 1.412 1.412 0 0 1 2.822 0 .282.282 0 1 0 .564 0c0-.718-.385-1.347-.96-1.693a1.976 1.976 0 1 0-2.032 0 1.976 1.976 0 0 0-.959 1.693zm.565-3.386a1.412 1.412 0 0 1 2.822 0 1.412 1.412 0 0 1-2.822 0z"/></svg>