<svg width="17" height="17" viewBox="0 0 17 17" xmlns="http://www.w3.org/2000/svg"><path d="M15.654 8.751c-.478 0-1.115.283-1.761.773l-.52-2.654c.655-.658 3.195-3.294 3.2-4.575a.776.776 0 0 0-.217-.568.761.761 0 0 0-.556-.213c-1.303 0-4.079 2.69-4.726 3.336l-2.265-.4c.638-.927.794-1.75.385-2.161-.104-.104-.296-.228-.614-.228-.658 0-1.628.546-2.472 1.39a6.84 6.84 0 0 0-.394.429c-.49-.147-1.761-.494-2.273-.354-.55.15-1.52 1.21-1.707 1.422a.28.28 0 0 0-.067.247.28.28 0 0 0 .16.199L7.89 8.178l-3.578 4.354-.129.134c-.52-.309-1.807-1.008-2.391-.884-.455.092-1.07.906-1.313 1.251a.285.285 0 0 0-.042.238.279.279 0 0 0 .156.183l2.512 1.15.702.702 1.056 2.026a.28.28 0 0 0 .252.153.282.282 0 0 0 .16-.05c.33-.227 1.106-.803 1.174-1.242.104-.642-.725-1.88-1.122-2.43l4.682-3.681 3.226 6.397c.04.08.115.135.201.152a.288.288 0 0 0 .243-.07c.187-.17 1.13-1.044 1.257-1.545.145-.568-.244-1.873-.422-2.421.206-.162.404-.34.593-.529.539-.538.963-1.132 1.196-1.67.268-.622.256-1.125-.035-1.415-.105-.104-.295-.23-.615-.23zm.13 1.42c-.205.476-.587 1.007-1.077 1.495-.22.22-.452.422-.694.599a.283.283 0 0 0-.1.32c.252.734.566 1.93.473 2.29-.046.182-.42.618-.816 1.01l-3.167-6.282a.28.28 0 0 0-.054-.074l-.067-.066a.28.28 0 0 0-.374-.022l-4.99 3.925a.875.875 0 0 1-.14.114.287.287 0 0 0-.065.407c.608.8 1.232 1.874 1.177 2.215-.028.112-.324.404-.676.677l-.925-1.772a.324.324 0 0 0-.05-.07l-.77-.77a.278.278 0 0 0-.083-.057l-2.238-1.025c.31-.396.642-.72.814-.752.456 0 1.547.576 2.128.939.12.075.28.05.37-.062.076-.095.164-.187.273-.3L8.56 8.254a.283.283 0 0 0-.1-.437L2.418 5.043c.414-.43.936-.906 1.17-.97a.724.724 0 0 1 .173-.016c.653 0 1.948.415 1.961.42a.288.288 0 0 0 .309-.093 6.5 6.5 0 0 1 .477-.533c.84-.84 1.662-1.223 2.07-1.223.07 0 .162.01.214.062.169.17.017.884-.708 1.782a.284.284 0 0 0 .173.457l2.863.506a.287.287 0 0 0 .251-.08C12.62 4.09 14.925 2.083 15.8 2.083c.107 0 .143.036.155.047.022.021.05.063.05.165-.003.867-1.934 3.094-3.15 4.294-.08.078-.093.205-.055.31l.627 3.2a.283.283 0 0 0 .465.158c.648-.57 1.34-.936 1.762-.936.07 0 .163.01.214.063.083.081.11.338-.084.788z"/></svg>