<svg width="21" height="21" viewBox="0 0 21 21" xmlns="http://www.w3.org/2000/svg"><path d="M8.485 4.54C3.8 4.54 0 7.46 0 11.065c0 1.768.915 3.374 2.4 4.55-.086 1.198-.374 2.664-1.21 3.454 1.664 0 3.363-1.042 4.438-1.857.892.246 1.853.38 2.857.38 4.687 0 8.485-2.92 8.485-6.527 0-3.605-3.798-6.527-8.485-6.527z"/><path d="M19.764 11.702c.714-.954 1.122-2.064 1.122-3.246 0-3.606-3.799-6.527-8.485-6.527-2.062 0-3.953.566-5.422 1.506a11.65 11.65 0 0 1 2.159-.2c5.046 0 9.138 3.214 9.138 7.179 0 1.562-.634 3.01-1.713 4.186 1.072.815 2.774 1.86 4.437 1.86-1.183-1.124-1.268-3.612-1.236-4.758z"/></svg>