<svg width="21" height="21" viewBox="0 0 21 21" xmlns="http://www.w3.org/2000/svg"><path d="M10.5 0C4.692 0 0 4.687 0 10.5S4.687 21 10.5 21 21 16.313 21 10.5 16.308 0 10.5 0zm0 19.596A9.076 9.076 0 0 1 1.404 10.5 9.076 9.076 0 0 1 10.5 1.404a9.076 9.076 0 0 1 9.096 9.096 9.076 9.076 0 0 1-9.096 9.096z"/><path d="M15.54 7.421a.683.683 0 0 0-.983 0l-5.386 5.386-2.728-2.728a.683.683 0 0 0-.982 0 .683.683 0 0 0 0 .983L8.68 14.28a.633.633 0 0 0 .49.208c.209 0 .353-.07.492-.209l5.877-5.877a.683.683 0 0 0 0-.982z"/></svg>