<svg width="21" height="21" viewBox="0 0 21 21" fill="none" xmlns="http://www.w3.org/2000/svg"><path d="M.242 11.308A.872.872 0 0 1 0 10.743c0-.162.08-.404.242-.565l1.131-1.131a.78.78 0 0 1 1.13 0l.082.08 4.442 4.766a.39.39 0 0 0 .565 0L18.415 2.666h.081a.78.78 0 0 1 1.13 0l1.132 1.13a.78.78 0 0 1 0 1.132L7.835 18.335a.733.733 0 0 1-.566.243.733.733 0 0 1-.565-.243l-6.3-6.784-.162-.243z" fill="url(#a)"/><defs><linearGradient id="a" x1="10.5" y1="2.424" x2="10.5" y2="18.578" gradientUnits="userSpaceOnUse"><stop stop-color="#41FB96"/><stop offset="1" stop-color="#12A053"/></linearGradient></defs></svg>