<svg width="19" height="19" viewBox="0 0 19 19" xmlns="http://www.w3.org/2000/svg"><path d="M8.938 11.398V6.054a4.826 4.826 0 0 0-4.262 4.787 4.825 4.825 0 0 0 4.82 4.82 4.826 4.826 0 0 0 4.786-4.263H8.938z"/><path d="M10.052 10.284h4.23a4.829 4.829 0 0 0-4.23-4.23v4.23z"/><path d="M15.265 5.071a8.106 8.106 0 0 0-3.913-2.178v-1.78h1.114V0H6.524v1.113h1.115v1.78a8.105 8.105 0 0 0-3.913 2.178 8.106 8.106 0 0 0-2.39 5.77c0 2.18.849 4.228 2.39 5.77A8.105 8.105 0 0 0 9.496 19a8.11 8.11 0 0 0 5.769-2.39 8.106 8.106 0 0 0 2.39-5.77 8.11 8.11 0 0 0-2.39-5.769zm-5.77 11.702a5.94 5.94 0 0 1-5.932-5.932 5.94 5.94 0 0 1 5.932-5.933 5.94 5.94 0 0 1 5.933 5.933 5.94 5.94 0 0 1-5.933 5.932z"/></svg>