<svg width="17" height="17" viewBox="0 0 17 17" xmlns="http://www.w3.org/2000/svg"><path d="M8.5 4.316A4.188 4.188 0 0 0 4.316 8.5 4.188 4.188 0 0 0 8.5 12.684 4.188 4.188 0 0 0 12.684 8.5 4.188 4.188 0 0 0 8.5 4.316zm2.522 4.682h-3.02v-3.02h.996v2.024h2.024v.996z"/><path d="M17 10.592V6.408h-1.352a7.394 7.394 0 0 0-.616-1.481l.958-.958-2.96-2.959-.957.958a7.38 7.38 0 0 0-1.48-.615V0H6.407v1.352a7.376 7.376 0 0 0-1.481.616l-.958-.958L1.01 3.97l.958.957a7.38 7.38 0 0 0-.615 1.48H0v4.185h1.352c.151.515.357 1.01.616 1.481l-.958.958 2.96 2.959.957-.958c.471.259.966.465 1.48.616V17h4.185v-1.352a7.393 7.393 0 0 0 1.481-.616l.958.958 2.959-2.96-.958-.957c.259-.471.465-.966.616-1.48H17zM8.5 13.68A5.186 5.186 0 0 1 3.32 8.5 5.186 5.186 0 0 1 8.5 3.32a5.186 5.186 0 0 1 5.18 5.18 5.186 5.186 0 0 1-5.18 5.18z"/></svg>