<svg width="22" height="22" viewBox="0 0 22 22" xmlns="http://www.w3.org/2000/svg"><path d="M21.122 6.718c-1.16-2.704-3.131-4.67-5.858-5.834a10.812 10.812 0 0 0-4.282-.878 10.7 10.7 0 0 0-4.27.878C4.008 2.044 2.028 4.01.866 6.718A10.705 10.705 0 0 0 0 10.988c0 1.492.284 2.925.866 4.282 1.162 2.709 3.142 4.686 5.846 5.846 1.361.584 2.778.878 4.27.878 1.491 0 2.92-.297 4.282-.878 2.727-1.163 4.698-3.142 5.858-5.846A10.76 10.76 0 0 0 22 10.988c0-1.491-.294-2.908-.878-4.27zm-1.756 9.13a9.65 9.65 0 0 1-3.537 3.524 9.474 9.474 0 0 1-4.847 1.3 9.314 9.314 0 0 1-3.753-.77c-1.19-.518-2.219-1.198-3.08-2.058-.86-.86-1.544-1.898-2.056-3.09a9.47 9.47 0 0 1-.758-3.766c0-1.744.429-3.358 1.288-4.835a9.655 9.655 0 0 1 3.524-3.524 9.4 9.4 0 0 1 4.835-1.3c1.744 0 3.366.436 4.847 1.3a9.68 9.68 0 0 1 3.537 3.524 9.401 9.401 0 0 1 1.299 4.835 9.48 9.48 0 0 1-1.3 4.86z"/><path d="M11.68 10.892V4.66c0-.373-.325-.674-.698-.674a.679.679 0 0 0-.662.674v6.327c0 .012.024.06.024.096a.629.629 0 0 0 .18.542l3.598 3.596c.24.24.685.24.926 0a.649.649 0 0 0 0-.938l-3.368-3.392z"/></svg>