<svg width="23" height="23" viewBox="0 0 23 23" xmlns="http://www.w3.org/2000/svg"><path d="M19.54 7.933c-.202-3.45-3.046-6.207-6.474-6.207-2.082 0-4.098 1.02-5.346 2.686-.029-.015-.06-.025-.088-.04a3.304 3.304 0 0 0-.6-.224c-.045-.012-.089-.024-.134-.034a3.424 3.424 0 0 0-.262-.048c-.039-.006-.077-.013-.117-.018a3.454 3.454 0 0 0-3.836 3.427c0 .05.003.098.006.147C1.095 8.49 0 10.312 0 12.135a4.93 4.93 0 0 0 4.924 4.924H6.9a.383.383 0 1 0 0-.767H4.924a4.162 4.162 0 0 1-4.157-4.157c0-1.593 1.037-3.246 2.465-3.93L3.45 8.1v-.24c0-.047.003-.096.006-.144l.003-.067-.004-.072c-.002-.033-.005-.067-.005-.1a2.687 2.687 0 0 1 2.683-2.684 2.68 2.68 0 0 1 .44.04c.104.017.205.039.304.068l.04.01a2.628 2.628 0 0 1 .4.16 2.682 2.682 0 0 1 1.5 2.405.383.383 0 1 0 .766 0c0-1.055-.477-2-1.226-2.633 1.098-1.438 2.908-2.35 4.709-2.35 2.968 0 5.434 2.352 5.691 5.324a7.3 7.3 0 0 0-1.565.048.383.383 0 1 0 .116.757c.852-.128 1.741-.008 1.795 0 1.785.339 3.13 1.983 3.13 3.827a3.849 3.849 0 0 1-3.844 3.844h-1.522a.383.383 0 1 0 0 .767h1.522A4.616 4.616 0 0 0 23 12.449c0-2.105-1.467-3.992-3.46-4.516z"/><path d="M12.155 11.806a.384.384 0 0 0-.543 0l-3.066 3.066a.383.383 0 1 0 .542.542l2.412-2.412v7.89a.383.383 0 1 0 .767 0v-7.89l2.412 2.412a.383.383 0 1 0 .542-.542l-3.066-3.066z"/></svg>