<svg width="28" height="28" viewBox="0 0 28 28" xmlns="http://www.w3.org/2000/svg"><path d="M4 7a3.503 3.503 0 0 0 3.46-3H27a.5.5 0 1 0 0-1H7.46C7.216 1.307 5.76 0 4 0 2.07 0 .5 1.57.5 3.5S2.07 7 4 7zm0-6c1.378 0 2.5 1.122 2.5 2.5S5.378 6 4 6a2.503 2.503 0 0 1-2.5-2.5C1.5 2.122 2.622 1 4 1zm20 20a3.503 3.503 0 0 0-3.46 3H1a.5.5 0 1 0 0 1h19.54c.244 1.693 1.7 3 3.46 3 1.93 0 3.5-1.57 3.5-3.5S25.93 21 24 21zm0 6a2.503 2.503 0 0 1-2.5-2.5c0-1.378 1.122-2.5 2.5-2.5s2.5 1.122 2.5 2.5S25.378 27 24 27zm3-13.5h-9.316a3.608 3.608 0 0 0-3.58-3.207 3.608 3.608 0 0 0-3.581 3.207H1a.5.5 0 1 0 0 1h9.555c.288 1.7 1.768 3 3.549 3 1.78 0 3.26-1.3 3.548-3H27a.5.5 0 1 0 0-1zm-12.896 3a2.607 2.607 0 0 1-2.604-2.604 2.607 2.607 0 0 1 2.604-2.603 2.607 2.607 0 0 1 2.603 2.604 2.607 2.607 0 0 1-2.604 2.603z"/></svg>