<svg width="21" height="21" viewBox="0 0 21 21" xmlns="http://www.w3.org/2000/svg"><path d="M20.569 17.48H.684v.865h19.885v-.865zm-.302-13.62c-1.444-.84-3.085-.394-4.207.13l-3.345 1.56-5.753-2.894-3.426.147 4.75 4.816L5.26 9.057 2.11 7.858 0 8.842l1.906 2.367c-.201.24-.384.578-.218.933.216.464.856.698 1.904.698.216 0 .448-.01.697-.03 1.152-.09 2.4-.385 3.18-.748l11.957-5.576C20.46 6.004 20.974 5.499 21 4.94c.013-.29-.103-.712-.732-1.08zM19.06 5.703L7.104 11.278c-.665.31-1.757.57-2.781.662-1.048.094-1.608-.024-1.794-.124.038-.053.11-.136.242-.252l.31-.274-1.715-2.13.778-.363 3.153 1.2 4.46-2.118L5.52 3.583l1.254-.054L12.7 6.51l3.725-1.736c1.36-.634 2.506-.69 3.406-.165.227.132.306.247.304.292 0 .004-.026.314-1.074.802z"/></svg>