<svg width="17" height="17" viewBox="0 0 17 17" xmlns="http://www.w3.org/2000/svg"><path d="M13.007 4.406c0 .515-.375.829-.65 1.058-.103.087-.296.246-.295.306a.415.415 0 0 1-.418.418h-.004a.416.416 0 0 1-.421-.411c-.004-.457.33-.73.597-.955.21-.176.348-.3.348-.414a.417.417 0 0 0-.834 0 .421.421 0 1 1-.843 0 1.26 1.26 0 1 1 2.52-.002zm-1.355 2.171A.414.414 0 0 0 11.24 7v.003c0 .233.18.42.412.42a.423.423 0 0 0 0-.845zM3.156 9.513a.421.421 0 1 0 0 .843h.035a.421.421 0 1 0 0-.843h-.035zm1.465 0a.421.421 0 1 0 0 .843h.035a.421.421 0 1 0 0-.843h-.035zM17 2.781v4.745c0 1.123-.9 2.034-2.024 2.034H9.51c-.107 0-.195 0-.269-.002a2.237 2.237 0 0 0-.197.002 2.797 2.797 0 0 0-.205.179l-.111.1-1.547 1.41a.43.43 0 1 1-.719-.311V6.469H2.048c-.658 0-1.204.54-1.204 1.198v4.745c0 .658.546 1.176 1.204 1.176h6.106c.105 0 .204.048.281.119l1.26 1.162v-4.006a.421.421 0 1 1 .843 0v4.96a.415.415 0 0 1-.415.418.425.425 0 0 1-.284-.115L7.99 14.431H2.047C.924 14.43 0 13.535 0 12.41V7.668a2.05 2.05 0 0 1 2.047-2.04h4.416V2.78c0-1.123.931-2.025 2.054-2.025h6.46A2.02 2.02 0 0 1 17 2.78zm-.843 0c0-.658-.523-1.182-1.18-1.182h-6.46c-.658 0-1.211.524-1.211 1.182v7.202l.847-.766c.04-.036.083-.069.116-.098.386-.357.485-.414.99-.404.07.002.151.002.251.002h5.466c.658 0 1.181-.533 1.181-1.191V2.78z"/></svg>