<svg width="19" height="19" viewBox="0 0 19 19" xmlns="http://www.w3.org/2000/svg"><path d="M15.833 0a3.17 3.17 0 0 0-3.167 3.167c0 1.514 2.244 4.58 2.77 5.277 0 .226 0 .447-.006.65-.005.218.167.4.386.406h.01c.214 0 .39-.17.396-.385.005-.208.005-.436.005-.668C16.75 7.754 19 4.683 19 3.167A3.17 3.17 0 0 0 15.833 0zm0 7.65c-.87-1.197-2.375-3.476-2.375-4.483A2.378 2.378 0 0 1 15.833.792a2.378 2.378 0 0 1 2.375 2.375c0 1.007-1.505 3.286-2.375 4.483z"/><path d="M15.833 2.375a.793.793 0 0 0 0 1.583.793.793 0 0 0 0-1.583zM4.75 8.709a2.378 2.378 0 0 0-2.375 2.375 2.378 2.378 0 0 0 2.375 2.375 2.378 2.378 0 0 0 2.375-2.375A2.378 2.378 0 0 0 4.75 8.709zm0 3.958a1.585 1.585 0 0 1 0-3.167 1.585 1.585 0 0 1 0 3.167zm5.995 1.599a.395.395 0 0 0-.512.226c-.177.458-.4.993-.698 1.483a.396.396 0 0 0 .675.413c.332-.544.571-1.119.761-1.61a.396.396 0 0 0-.226-.512zm-2.232 2.89c-.396.314-.847.55-1.378.723a.396.396 0 1 0 .245.753 5.18 5.18 0 0 0 1.625-.856.396.396 0 0 0-.492-.62zm3.603-5.747c-.654.37-1.017 1.014-1.233 1.465a.395.395 0 1 0 .714.343c.274-.573.555-.919.91-1.12a.396.396 0 1 0-.391-.688zm3.57-.981a.397.397 0 0 0-.55.105c-.13.193-.397.458-1.203.53a.396.396 0 1 0 .07.789c.858-.077 1.443-.363 1.789-.875a.396.396 0 0 0-.106-.55z"/><path d="M5.688 18.214c1.249-1.332 3.812-4.396 3.812-7.13 0-2.664-2.087-4.75-4.75-4.75S0 8.42 0 11.084c0 3.534 4.295 7.635 4.478 7.808A.393.393 0 0 0 4.75 19c.288 0 .562-.01.822-.03a.396.396 0 0 0 .365-.424.389.389 0 0 0-.25-.332zm-.938-.168c-.935-.954-3.958-4.249-3.958-6.962A3.916 3.916 0 0 1 4.75 7.125a3.916 3.916 0 0 1 3.958 3.959c0 2.713-3.023 6.008-3.958 6.962z"/></svg>