<svg width="17" height="17" viewBox="0 0 17 17" xmlns="http://www.w3.org/2000/svg"><path d="M15.583 2.125H1.417C.635 2.125 0 2.76 0 3.542v9.916c0 .782.635 1.417 1.417 1.417h14.166c.782 0 1.417-.635 1.417-1.417V3.542c0-.782-.635-1.417-1.417-1.417zm-14.166.708h14.166c.053 0 .098.02.147.03a1898.936 1898.936 0 0 1-6.716 6.125c-.111.1-.29.22-.514.22-.223 0-.403-.12-.514-.22-1.423-1.282-5.49-5.003-6.717-6.125.05-.01.095-.03.148-.03zM.708 13.458V3.542c0-.07.021-.133.04-.196.939.86 3.776 3.455 5.616 5.128C4.53 10.05 1.692 12.741.746 13.643c-.017-.06-.038-.12-.038-.185zm14.875.709H1.417c-.057 0-.107-.02-.16-.033.978-.932 3.834-3.638 5.636-5.18l.619.56c.291.264.633.403.988.403s.697-.14.988-.403c.17-.152.384-.346.62-.56 1.8 1.542 4.657 4.248 5.635 5.18-.053.013-.103.033-.16.033zm.709-.709c0 .066-.021.125-.038.185-.946-.903-3.784-3.594-5.618-5.169 1.84-1.673 4.677-4.269 5.616-5.128.019.063.04.126.04.196v9.916z"/></svg>