<svg width="25" height="25" viewBox="0 0 25 25" xmlns="http://www.w3.org/2000/svg"><path d="M21.563 9.105c-5.02-5.02-13.189-5.02-18.21 0L0 12.458l3.437 3.437a12.837 12.837 0 0 0 9.105 3.766c3.297 0 6.594-1.255 9.105-3.766L25 12.542l-3.437-3.437zm-.514 6.193c-4.69 4.69-12.324 4.69-17.015 0l-2.84-2.84 2.757-2.756c4.69-4.69 12.324-4.69 17.015 0l2.84 2.84-2.757 2.756z"/><path d="M12.066 9.11a2.96 2.96 0 0 0-2.957 2.956.422.422 0 0 0 .845 0c0-1.164.947-2.112 2.111-2.112a.422.422 0 0 0 0-.844z"/><path d="M12.49 6.999A5.496 5.496 0 0 0 7 12.489a5.496 5.496 0 0 0 5.49 5.49 5.496 5.496 0 0 0 5.49-5.49 5.496 5.496 0 0 0-5.49-5.49zm0 10.135a4.65 4.65 0 0 1-4.645-4.645 4.65 4.65 0 0 1 4.645-4.645 4.65 4.65 0 0 1 4.645 4.645 4.65 4.65 0 0 1-4.645 4.645z"/></svg>