<svg xmlns="http://www.w3.org/2000/svg" viewBox="0 0 60 60"><path d="M45.5 34c-7.168 0-13 5.832-13 13s5.832 13 13 13 13-5.832 13-13-5.832-13-13-13zm0 24c-6.065 0-11-4.935-11-11s4.935-11 11-11 11 4.935 11 11-4.935 11-11 11z"/><path d="M50.679 41.429l-5.596 8.04-3.949-3.242a.999.999 0 1 0-1.268 1.546l4.786 3.929a1.003 1.003 0 0 0 1.455-.201l6.214-8.929a1 1 0 0 0-1.642-1.143z"/><path d="M29.551 48H12.5a1 1 0 1 1 0-2h17.051a15.852 15.852 0 0 1 1.584-6H12.5a1 1 0 1 1 0-2h19.782c2.884-4.222 7.732-7 13.218-7 1.026 0 2.027.106 3 .292V14.586L33.914 0H1.5v60h34.708a15.973 15.973 0 0 1-6.657-12zM34.5 4l10 10h-10V4zm-22 10h10a1 1 0 1 1 0 2h-10a1 1 0 1 1 0-2zm0 8h25a1 1 0 1 1 0 2h-25a1 1 0 1 1 0-2zm0 8h25a1 1 0 1 1 0 2h-25a1 1 0 1 1 0-2z"/></svg>