<svg width="18" height="18" viewBox="0 0 18 18" xmlns="http://www.w3.org/2000/svg"><path d="M17.722 3.632h-1.465a1.526 1.526 0 0 0 .187-1.412L16 1.026a1.525 1.525 0 0 0-2.08-.844l-3.514 1.67a1.055 1.055 0 0 0-.616-.198H8.21c-.23 0-.442.073-.616.197L4.08.181A1.525 1.525 0 0 0 2 1.026l-.445 1.195a1.526 1.526 0 0 0 .188 1.412H.278A.278.278 0 0 0 0 3.91v2a.278.278 0 0 0 .556 0V4.187h1.93c.03.011.061.021.093.03l2.332.642c-.518.794-.975 1.63-1.366 2.495H.555v-.333a.278.278 0 0 0-.555 0v.611c0 .154.124.278.278.278h.99v9.835c0 .154.125.278.278.278h14.908a.278.278 0 0 0 .278-.278v-1.613a.278.278 0 0 0-.556 0v1.335h-5.51V8.081a14.875 14.875 0 0 1 1.565 4.785.278.278 0 0 0 .497.127c.4-.53.77-1.097 1.106-1.689a15.85 15.85 0 0 1 1.624 1.27.278.278 0 0 0 .46-.248c-.222-1.513-.636-3-1.222-4.416h1.48v7.11a.278.278 0 1 0 .555 0V7.91h.991A.278.278 0 0 0 18 7.632V3.91a.277.277 0 0 0-.278-.278zM14.16.684a.956.956 0 0 1 .778-.022.955.955 0 0 1 .542.558l.444 1.193a.956.956 0 0 1-.046.777.955.955 0 0 1-.604.491L10.852 4.9V3.564c.994-.609 3.472-1.864 4.09-.994a.278.278 0 1 0 .452-.32c-.476-.673-1.479-.705-2.981-.098-.62.25-1.19.556-1.56.768v-.205c0-.149-.032-.29-.087-.42l3.393-1.61zM8.21 2.209h1.58c.279 0 .506.227.506.506V5.01a.506.506 0 0 1-.506.506H8.21a.506.506 0 0 1-.506-.506V2.715c0-.279.227-.506.506-.506zm-.466 5.145c.266-.441.555-.87.866-1.282h.782c.311.413.6.84.866 1.282H7.743zM2.123 3.19a.956.956 0 0 1-.046-.777l.445-1.193a.954.954 0 0 1 .54-.558.956.956 0 0 1 .78.022l3.393 1.612a1.06 1.06 0 0 0-.086.419v.22a13.279 13.279 0 0 0-1.588-.783c-1.503-.607-2.506-.575-2.982.097a.278.278 0 1 0 .454.321c.622-.878 3.14.409 4.116 1.01V4.9L2.727 3.682a.955.955 0 0 1-.604-.492zm5.15 2.32c.139.258.38.453.671.528a15.456 15.456 0 0 0-2.613 6.085 15.197 15.197 0 0 1-.824-1.35.277.277 0 0 0-.396-.1c-.462.302-.915.633-1.353.988a18.15 18.15 0 0 1 2.717-6.647l1.798.495zm-5.449 2.4h1.48c-.586 1.416-1 2.903-1.222 4.416a.278.278 0 0 0 .46.248 15.833 15.833 0 0 1 1.624-1.27c.335.592.706 1.16 1.106 1.69a.278.278 0 0 0 .497-.128 14.884 14.884 0 0 1 1.564-4.785v9.386H1.824V7.91zm6.065 9.557V7.91h2.222v9.557H7.89zm6-6.794a.277.277 0 0 0-.396.1c-.253.467-.529.92-.824 1.35a15.451 15.451 0 0 0-2.613-6.084c.29-.075.532-.27.67-.53l1.8-.495a18.16 18.16 0 0 1 2.716 6.647 16.1 16.1 0 0 0-1.353-.988zm3.555-3.319h-2.988a18.579 18.579 0 0 0-1.367-2.495l2.332-.642a1.47 1.47 0 0 0 .094-.03h1.93v3.167z"/></svg>