<svg width="31" height="31" viewBox="0 0 31 31" xmlns="http://www.w3.org/2000/svg"><path d="M15.5 18.603a3.108 3.108 0 0 0 3.104-3.103c0-.676-.222-1.3-.587-1.809a3.1 3.1 0 0 0-2.516-1.294 3.102 3.102 0 0 0-2.517 1.294 3.088 3.088 0 0 0-.586 1.808 3.105 3.105 0 0 0 3.101 3.104zm6.776-6.899V8.715l-.39.002-2.6.008.01 2.988 2.98-.01z"/><path d="M15.5 0C6.953 0 0 6.953 0 15.5 0 24.046 6.953 31 15.5 31 24.046 31 31 24.046 31 15.5 31 6.953 24.047 0 15.5 0zm8.815 13.691v7.218a3.41 3.41 0 0 1-3.407 3.407H10.092a3.41 3.41 0 0 1-3.407-3.407V10.092a3.41 3.41 0 0 1 3.407-3.407h10.815a3.41 3.41 0 0 1 3.408 3.407v3.6z"/><path d="M20.322 15.5a4.828 4.828 0 0 1-4.822 4.822 4.827 4.827 0 0 1-4.821-4.822c0-.64.127-1.25.354-1.81H8.402v7.218a1.69 1.69 0 0 0 1.69 1.689h10.815c.93 0 1.69-.756 1.69-1.689v-7.217h-2.634c.23.558.359 1.17.359 1.809z"/></svg>