<svg width="525" height="182" viewBox="0 0 525 182" xmlns="http://www.w3.org/2000/svg"><path d="M516.971 146.498a.5.5 0 0 0 .527-.471l.25-4.493a.5.5 0 0 0-.999-.056l-.222 3.994-3.993-.222a.5.5 0 0 0-.056.998l4.493.25zM303.999 100l-.139-.48.139.48zm-301-45.5c.5 0 .997.003 1.495.008l.01-1c-.5-.005-1.002-.007-1.504-.007v1zm4.473.068c.99.03 1.979.069 2.965.117l.05-.998c-.993-.05-1.988-.089-2.985-.119l-.03 1zm5.935.293c.99.068 1.98.145 2.967.231l.087-.996a160.41 160.41 0 0 0-2.986-.233l-.068.998zm5.924.517c.987.104 1.972.217 2.956.339l.123-.993c-.99-.122-1.981-.236-2.974-.34l-.105.993zm5.906.73c.981.138 1.962.285 2.94.44l.157-.988a179.02 179.02 0 0 0-2.957-.443l-.14.99zm5.875.928c.977.171 1.953.35 2.928.536l.187-.983c-.98-.187-1.96-.366-2.943-.538l-.172.985zm5.848 1.115c.97.2 1.94.407 2.908.621l.216-.976a210.92 210.92 0 0 0-2.922-.624l-.202.98zm5.811 1.284c.966.227 1.93.46 2.895.7l.242-.97c-.969-.24-1.938-.475-2.908-.704l-.229.974zm5.776 1.437c.96.252 1.92.51 2.878.772l.265-.964c-.962-.264-1.925-.523-2.89-.775l-.253.967zm5.747 1.577c.952.272 1.904.55 2.855.833l.285-.958c-.954-.284-1.91-.563-2.865-.837l-.276.962zm5.71 1.697c.947.292 1.895.588 2.842.89l.303-.953c-.95-.302-1.9-.6-2.851-.892l-.294.955zm5.675 1.803c.944.309 1.889.622 2.833.939l.318-.948a388.18 388.18 0 0 0-2.84-.941l-.311.95zm5.653 1.896c.937.322 1.875.648 2.813.976l.33-.943c-.94-.33-1.879-.656-2.819-.979l-.324.946zm5.629 1.973c.933.333 1.866.67 2.8 1.009l.342-.94c-.936-.34-1.871-.677-2.806-1.01l-.336.941zm5.599 2.032c.933.344 1.867.69 2.802 1.04l.35-.938c-.937-.349-1.872-.696-2.807-1.04l-.345.938zm5.589 2.084c.928.35 1.858.702 2.788 1.056l.355-.935a875.82 875.82 0 0 0-2.79-1.056l-.353.935zm5.581 2.122c.925.354 1.852.71 2.779 1.067l.36-.933-2.781-1.068-.358.934zm5.561 2.14l2.789 1.08.361-.933-2.79-1.08-.36.933zm5.566 2.156l2.781 1.077.361-.932-2.781-1.078-.361.933zm5.571 2.156c.924.358 1.851.715 2.779 1.072l.359-.933-2.778-1.071-.36.932zm5.564 2.141c.93.356 1.861.712 2.795 1.067l.355-.935c-.932-.354-1.863-.71-2.793-1.066l-.357.934zm5.582 2.123c.929.35 1.86.7 2.793 1.048l.349-.936c-.931-.349-1.861-.698-2.789-1.048l-.353.936zm5.597 2.09c.931.344 1.864.687 2.799 1.028l.343-.94c-.934-.34-1.865-.682-2.795-1.026l-.347.938zm5.604 2.045c.937.337 1.876.672 2.818 1.006l.334-.943a713.61 713.61 0 0 1-2.814-1.004l-.338.94zm5.633 1.995c.938.326 1.877.65 2.82.973l.323-.946c-.94-.322-1.878-.645-2.814-.971l-.329.944zm5.654 1.932c.942.316 1.887.63 2.835.94l.311-.95c-.945-.31-1.888-.623-2.829-.938l-.317.948zm5.671 1.859c.949.303 1.899.604 2.853.901l.298-.954c-.951-.297-1.9-.597-2.846-.9l-.305.953zm5.711 1.782c.949.288 1.9.573 2.855.854l.283-.959c-.952-.28-1.901-.565-2.848-.852l-.29.957zm5.727 1.688c.958.274 1.919.545 2.883.811l.267-.964c-.961-.265-1.92-.535-2.875-.808l-.275.961zm5.757 1.592c.961.256 1.925.509 2.892.757l.248-.968c-.963-.248-1.924-.5-2.882-.755l-.258.966zm5.801 1.489c.962.238 1.926.47 2.894.699l.23-.973c-.965-.228-1.926-.46-2.884-.696l-.24.97zm5.804 1.37c.973.22 1.949.434 2.929.644l.209-.978c-.976-.209-1.949-.423-2.918-.641l-.22.975zm5.849 1.254c.972.197 1.948.39 2.926.578l.189-.982c-.975-.187-1.947-.379-2.916-.576l-.199.98zm5.872 1.126c.98.176 1.963.348 2.949.514l.166-.986a272.26 272.26 0 0 1-2.937-.513l-.178.985zm5.888.991a250.4 250.4 0 0 0 2.959.446l.143-.99c-.986-.143-1.968-.291-2.947-.444l-.155.988zm5.938.858c.979.129 1.961.253 2.947.372l.119-.993c-.982-.118-1.96-.241-2.934-.37l-.132.991zm5.914.71c.992.106 1.988.208 2.988.303l.094-.996c-.995-.095-1.987-.195-2.975-.302l-.107.995zm5.962.567c.986.082 1.976.157 2.969.227l.07-.998a217.23 217.23 0 0 1-2.957-.226l-.082.997zm5.959.417c.998.058 2 .109 3.006.153l.045-.999c-1.002-.044-2-.095-2.994-.152l-.057.998zm5.969.267c.992.031 1.986.057 2.985.076l.019-1c-.994-.019-1.985-.044-2.972-.076l-.032 1zm5.991.115c.993.006 1.99.006 2.99-.001l-.007-1c-.996.007-1.988.007-2.977.001l-.006 1zm5.961-.038c.994-.019 1.991-.045 2.992-.077l-.032-.999c-.997.032-1.99.057-2.979.076l.019 1zm6.006-.192c.985-.044 1.973-.094 2.965-.151l-.057-.998c-.987.056-1.972.106-2.952.15l.044.999zm5.935-.34c.994-.069 1.991-.145 2.992-.227l-.082-.997c-.997.082-1.99.158-2.979.227l.069.997zm6.002-.495c.976-.092 1.956-.192 2.939-.297l-.107-.994c-.979.105-1.954.204-2.926.296l.094.995zm5.899-.633c.99-.119 1.984-.244 2.981-.376l-.131-.991c-.993.131-1.983.256-2.969.374l.119.993zm5.971-.789c.97-.14 1.943-.287 2.92-.44l-.155-.988c-.973.153-1.942.298-2.908.438l.143.99zm5.86-.917c.983-.166 1.97-.338 2.96-.517l-.177-.984c-.987.178-1.97.349-2.949.514l.166.987zm5.934-1.072c.96-.185 1.924-.376 2.891-.574l-.2-.979c-.963.196-1.923.387-2.88.571l.189.982zm5.802-1.185c.974-.21 1.951-.427 2.932-.65l-.222-.975c-.977.222-1.95.438-2.921.647l.211.978zm5.883-1.338a291.02 291.02 0 0 0 2.869-.702l-.243-.97c-.956.239-1.909.472-2.859.699l.233.973zm5.743-1.438c.961-.251 1.925-.508 2.892-.772l-.263-.965c-.964.263-1.925.519-2.882.77l.253.967zm5.804-1.582c.487-.139.975-.278 1.463-.42l-.278-.96c-.487.14-.973.28-1.458.418l.273.962zm1.463-.42c.491-.142.981-.282 1.47-.421l-.273-.962c-.491.14-.982.28-1.475.423l.278.96zm4.396-1.234c.972-.265 1.941-.524 2.907-.776l-.253-.967c-.969.253-1.941.512-2.917.778l.263.965zm5.795-1.513a280.99 280.99 0 0 1 2.888-.705l-.232-.973c-.963.23-1.929.465-2.898.707l.242.97zm5.853-1.395c.985-.223 1.967-.44 2.945-.65l-.21-.978c-.982.211-1.967.429-2.956.653l.221.975zm5.869-1.262c.971-.197 1.939-.388 2.904-.573l-.188-.982c-.969.185-1.94.377-2.915.575l.199.98zm5.899-1.13c.995-.178 1.986-.35 2.973-.515l-.165-.986c-.991.166-1.986.338-2.985.518l.177.984zm5.925-.992c.98-.152 1.956-.298 2.929-.438l-.142-.99c-.977.14-1.957.287-2.941.44l.154.988zm5.944-.851c1.001-.131 1.999-.256 2.993-.374l-.118-.993c-.998.118-2 .243-3.005.375l.13.992zm5.961-.707c.99-.106 1.976-.204 2.957-.296l-.093-.995c-.986.092-1.975.19-2.969.296l.105.995zm5.985-.56c1.005-.082 2.006-.156 3.002-.224l-.068-.998c-1 .069-2.005.143-3.014.225l.08.997zm5.978-.408c1.001-.055 1.998-.104 2.99-.146l-.042-.999c-.997.042-1.998.091-3.004.147l.056.998zm6.018-.254a217.48 217.48 0 0 1 2.999-.068l-.016-1c-.999.016-2.004.039-3.012.068l.029 1zm5.97-.097a233.77 233.77 0 0 1 3.024.012l.011-1a225.59 225.59 0 0 0-3.038-.011l.003 1zm6.04.064c1 .024 1.994.055 2.984.092l.038-1c-.994-.037-1.994-.068-2.998-.092l-.024 1zm5.971.224c1.013.052 2.021.11 3.023.176l.065-.998a218.54 218.54 0 0 0-3.037-.176l-.051.998zm6.014.391c.991.079 1.977.163 2.957.254l.092-.995c-.985-.092-1.975-.177-2.971-.255l-.078.996zm5.977.556c1.001.108 1.997.221 2.987.341l.121-.992c-.995-.12-1.995-.235-3.002-.343l-.106.994zm5.939.72c1.002.137 1.998.279 2.988.427l.148-.989c-.994-.149-1.995-.292-3.001-.428l-.135.99zm5.964.896c.986.163 1.966.331 2.939.506l.176-.984a207.73 207.73 0 0 0-2.952-.508l-.163.986zm5.895 1.058c.993.193 1.979.392 2.958.597l.204-.979c-.983-.206-1.973-.406-2.971-.6l-.191.982zm5.873 1.229c.983.22 1.959.447 2.928.68l.233-.973c-.973-.234-1.954-.461-2.942-.683l-.219.976zm5.857 1.403c.969.247 1.93.5 2.884.758l.261-.965a207.09 207.09 0 0 0-2.898-.762l-.247.97zm5.784 1.565c.972.278 1.935.562 2.891.85l.289-.957c-.96-.29-1.928-.575-2.905-.854l-.275.961zm5.734 1.731c.966.308 1.924.62 2.873.937l.317-.948c-.954-.32-1.916-.633-2.887-.942l-.303.953zm5.717 1.91c.941.33 1.873.664 2.796 1.003l.344-.939c-.927-.34-1.864-.676-2.81-1.007l-.33.943zm5.638 2.07c.938.359 1.867.724 2.786 1.092l.372-.929c-.924-.37-1.857-.735-2.799-1.097l-.359.934zm5.56 2.226c.936.391 1.862.786 2.777 1.184l.399-.917c-.92-.4-1.85-.797-2.791-1.19l-.385.923zm5.492 2.388c.929.421 1.847.844 2.754 1.271l.426-.905c-.911-.429-1.834-.854-2.768-1.277l-.412.911zm5.453 2.564c.907.443 1.803.889 2.686 1.337l.452-.892c-.888-.45-1.788-.898-2.7-1.344l-.438.899zm5.365 2.719c.887.466 1.761.934 2.623 1.403l.478-.879c-.866-.471-1.745-.941-2.636-1.409l-.465.885zm5.277 2.873c.87.491 1.727.982 2.57 1.474l.504-.864c-.847-.494-1.708-.988-2.583-1.481l-.491.871zm5.186 3.027a191.18 191.18 0 0 1 2.53 1.553l.529-.848c-.831-.519-1.679-1.04-2.542-1.561l-.517.856zm5.094 3.181c.843.545 1.669 1.088 2.477 1.627l.555-.832a200.596 200.596 0 0 0-2.49-1.635l-.542.84zm4.994 3.336c.829.572 1.637 1.139 2.423 1.7l.581-.814a202.732 202.732 0 0 0-2.435-1.709l-.569.823zm4.885 3.487c.824.607 1.622 1.207 2.393 1.796l.607-.795a188.273 188.273 0 0 0-2.406-1.806l-.594.805zm4.75 3.626c.822.65 1.611 1.285 2.364 1.902l.634-.773a176.985 176.985 0 0 0-2.378-1.913l-.62.784zm4.666 3.823c.798.679 1.549 1.33 2.251 1.95l.662-.749c-.707-.624-1.462-1.28-2.266-1.963l-.647.762zm4.47 3.953c.83.765 1.564 1.461 2.201 2.078l.695-.718a120.967 120.967 0 0 0-2.219-2.096l-.677.736zm4.305 4.178a56.252 56.252 0 0 1 .935.991l.046.05.011.013.003.003.373-.333.372-.334-.001-.001a.014.014 0 0 1-.003-.004l-.013-.014-.049-.054-.193-.209c-.17-.184-.425-.454-.763-.803l-.718.695z"/></svg>