<svg width="17" height="17" viewBox="0 0 17 17" xmlns="http://www.w3.org/2000/svg"><path d="M13.537 6.332V4.565C13.537 2.048 11.277 0 8.5 0S3.463 2.048 3.463 4.565v1.767a2.278 2.278 0 0 0-1.889 2.24v6.153A2.278 2.278 0 0 0 3.85 17h9.3a2.278 2.278 0 0 0 2.276-2.276V8.572a2.278 2.278 0 0 0-1.889-2.24zM4.093 4.565C4.093 2.395 6.07.63 8.5.63c2.43 0 4.408 1.765 4.408 3.935v1.731H4.093V4.565zm10.703 10.16c0 .907-.738 1.645-1.646 1.645h-9.3a1.648 1.648 0 0 1-1.646-1.646V8.572c0-.908.738-1.646 1.646-1.646h9.3c.908 0 1.646.738 1.646 1.646v6.152z"/><path d="M8.5 8.815a1.26 1.26 0 0 0-1.26 1.26v1.888a1.26 1.26 0 0 0 2.519 0v-1.889a1.26 1.26 0 0 0-1.26-1.26zm.63 3.148a.63.63 0 0 1-1.26 0v-1.889a.63.63 0 0 1 1.26 0v1.89z"/></svg>