<svg width="13" height="13" viewBox="0 0 13 13" xmlns="http://www.w3.org/2000/svg"><path d="M6.28 12.255H2.89c-.922 0-1.67-.75-1.67-1.669V2.414c0-.921.75-1.67 1.67-1.67h3.445a.37.37 0 0 0 .372-.372A.37.37 0 0 0 6.335 0H2.889A2.417 2.417 0 0 0 .475 2.414v8.172A2.417 2.417 0 0 0 2.89 13h3.39a.373.373 0 0 0 0-.745z"/><path d="M12.416 6.237l-2.368-2.368a.371.371 0 0 0-.527 0 .371.371 0 0 0 0 .527l1.733 1.733H3.697a.37.37 0 0 0-.372.372.37.37 0 0 0 .372.373h7.557L9.521 8.606a.375.375 0 1 0 .262.637c.094 0 .19-.035.263-.11l2.367-2.367a.372.372 0 0 0 .003-.53z"/></svg>