<svg width="23" height="23" viewBox="0 0 23 23" xmlns="http://www.w3.org/2000/svg"><path d="M18.622 15.953a.367.367 0 0 1-.253-.101L14.1 11.848a.37.37 0 1 1 .508-.54l4.268 4.004a.37.37 0 0 1-.255.64zm-14.245 0a.371.371 0 0 1-.254-.64l4.269-4.004a.371.371 0 0 1 .508.54l-4.27 4.003a.367.367 0 0 1-.253.101z"/><path d="M21.146 19.675H1.854A1.856 1.856 0 0 1 0 17.821V5.178c0-1.023.832-1.854 1.854-1.854h19.292c1.022 0 1.854.831 1.854 1.854v12.643a1.856 1.856 0 0 1-1.854 1.854zM1.854 4.065c-.613 0-1.112.5-1.112 1.113v12.643c0 .613.499 1.112 1.112 1.112h19.292c.613 0 1.112-.499 1.112-1.112V5.178c0-.613-.499-1.112-1.112-1.112H1.854z"/><path d="M11.5 13.363c-.493 0-.986-.164-1.362-.491L.616 4.565a.372.372 0 0 1-.037-.524.373.373 0 0 1 .524-.036l9.523 8.307c.474.413 1.275.413 1.748 0l9.51-8.293a.371.371 0 0 1 .489.559l-9.511 8.293a2.072 2.072 0 0 1-1.362.492z"/></svg>