<svg width="25" height="25" viewBox="0 0 25 25" xmlns="http://www.w3.org/2000/svg"><path d="M23.97 4.459H1.03A1.03 1.03 0 0 0 0 5.489v14.02c0 .57.461 1.03 1.03 1.03h22.94A1.03 1.03 0 0 0 25 19.51V5.49a1.03 1.03 0 0 0-1.03-1.03zm-22.94.809h22.94a.22.22 0 0 1 .21.156L12.5 12.72.82 5.424a.221.221 0 0 1 .21-.156zM.809 6.346l8.402 5.247L.809 18.26V6.346zM24.19 19.504a.221.221 0 0 1-.221.221H1.03a.221.221 0 0 1-.221-.22v-.216l9.13-7.216 2.345 1.467c.132.083.3.083.432 0l2.346-1.467 9.13 7.216v.215zm0-1.245l-8.423-6.644 8.423-5.22v11.864z"/></svg>