<svg width="16" height="16" viewBox="0 0 16 16" xmlns="http://www.w3.org/2000/svg"><path d="M4.875 3.75A1.877 1.877 0 0 0 6.75 1.875 1.877 1.877 0 0 0 4.875 0 1.877 1.877 0 0 0 3 1.875c0 1.034.841 1.875 1.875 1.875zm6.25 0A1.877 1.877 0 0 0 13 1.875 1.877 1.877 0 0 0 11.125 0 1.877 1.877 0 0 0 9.25 1.875c0 1.034.841 1.875 1.875 1.875zM3 9.063h.156v2.562h3.438V9.063h.156a.47.47 0 0 0 .469-.47V5.47c0-.552-.193-1.06-.513-1.46a2.8 2.8 0 0 1-1.831.679 2.8 2.8 0 0 1-1.83-.68 2.331 2.331 0 0 0-.514 1.461v3.125c0 .259.21.469.469.469zm6.25 0h.156v2.562h3.438V9.063H13a.47.47 0 0 0 .469-.47V5.47c0-.552-.192-1.06-.513-1.46a2.8 2.8 0 0 1-1.831.679 2.8 2.8 0 0 1-1.83-.68 2.331 2.331 0 0 0-.514 1.461v3.125c0 .259.21.469.469.469zm5.031 3.5H1.72A1.72 1.72 0 0 0 0 14.28 1.72 1.72 0 0 0 1.719 16H14.28A1.72 1.72 0 0 0 16 14.281a1.72 1.72 0 0 0-1.719-1.719z"/></svg>