<svg width="18" height="18" viewBox="0 0 18 18" xmlns="http://www.w3.org/2000/svg"><path d="M16.036 0a1.966 1.966 0 0 0-1.726 2.9l-3.216 3.216a2.6 2.6 0 0 0-3.206 0l-2.51-2.51c.115-.195.186-.418.186-.66a1.31 1.31 0 0 0-1.31-1.31 1.31 1.31 0 0 0-1.309 1.31c0 .721.588 1.309 1.31 1.309.242 0 .466-.07.66-.186l2.51 2.51a2.603 2.603 0 0 0 0 3.205L3.281 13.93a1.954 1.954 0 0 0-1.317-.51 1.962 1.962 0 1 0 0 3.925 1.966 1.966 0 0 0 1.726-2.9l4.198-4.199a2.6 2.6 0 0 0 1.276.53v3.325a1.965 1.965 0 0 0-1.636 1.934c0 1.083.88 1.964 1.963 1.964 1.083 0 1.964-.88 1.964-1.964 0-.97-.71-1.777-1.636-1.934v-3.325c.477-.06.913-.248 1.275-.53l2.51 2.51a1.29 1.29 0 0 0-.186.661 1.31 1.31 0 0 0 2.618 0 1.31 1.31 0 0 0-1.309-1.309c-.242 0-.466.07-.66.186l-2.51-2.51a2.603 2.603 0 0 0 0-3.206l3.163-3.163c.348.317.81.511 1.316.511 1.083 0 1.964-.88 1.964-1.963C18 .88 17.12 0 16.036 0zM3.6 2.945a.655.655 0 1 1 1.31.002.655.655 0 0 1-1.31-.002zM1.964 16.691a1.31 1.31 0 0 1-1.31-1.31 1.31 1.31 0 0 1 2.618 0 1.31 1.31 0 0 1-1.308 1.31zm8.836-.655a1.31 1.31 0 0 1-1.31 1.31 1.31 1.31 0 0 1-1.308-1.31 1.31 1.31 0 0 1 2.618.001zm-1.31-5.89a1.966 1.966 0 0 1-1.963-1.964 1.965 1.965 0 1 1 1.964 1.963zm5.892 3.272a.655.655 0 1 1-1.31-.001.655.655 0 0 1 1.31.001zm.654-10.145a1.31 1.31 0 0 1-1.309-1.31 1.31 1.31 0 0 1 2.618 0 1.31 1.31 0 0 1-1.309 1.31z"/></svg>