<svg width="22" height="22" viewBox="0 0 22 22" xmlns="http://www.w3.org/2000/svg"><path d="M2.102 16.738h17.796c.368 0 .667-.3.667-.668V4.63a.667.667 0 0 0-.667-.667H2.102c-.368 0-.667.3-.667.667v11.44c0 .368.3.668.667.668zM2.007 4.63c0-.052.042-.095.095-.095h17.796c.053 0 .095.043.095.095v11.44a.095.095 0 0 1-.095.096H2.102a.095.095 0 0 1-.095-.096V4.63zM22 17.248v.534a.256.256 0 0 1-.256.257H.256A.256.256 0 0 1 0 17.782v-.534h9.035a.36.36 0 0 0 .345.258h3.24a.36.36 0 0 0 .345-.258H22z"/></svg>