<svg width="18" height="20" viewBox="0 0 18 20" xmlns="http://www.w3.org/2000/svg"><path d="M17.735 14.293C15.617 11.94 15.299 10.759 15.299 7c0-3.866-2.82-7-6.299-7-3.479 0-6.299 3.134-6.299 7 0 2.027-.048 2.784-.3 3.713-.312 1.157-.953 2.265-2.136 3.58C-.3 14.923.1 16 .902 16h4.994l-.046.5C5.85 18.433 7.26 20 9 20s3.15-1.567 3.15-3.5l-.046-.5h4.994c.802 0 1.204-1.077.637-1.707zM9 19c-1.242 0-2.25-1.12-2.25-2.5l.046-.5h4.408l.046.5c0 1.38-1.007 2.5-2.25 2.5zM.902 15c2.7-3 2.7-5 2.7-8 0-3.313 2.416-6 5.398-6 2.982 0 5.399 2.687 5.4 6 0 3 0 5 2.699 8H.902z"/></svg>