<svg width="18" height="18" viewBox="0 0 18 18" xmlns="http://www.w3.org/2000/svg"><path d="M4.857 8.842c.658-.303 1.287-.455 1.887-.455h7.97V6.854c0-.588-.21-1.092-.632-1.514a2.065 2.065 0 0 0-1.514-.632h-5.21V4.4c0-.587-.212-1.092-.633-1.513a2.065 2.065 0 0 0-1.514-.632H2.146c-.588 0-1.092.21-1.514.632A2.065 2.065 0 0 0 0 4.4v9.197c0 .025.002.066.005.12.003.054.005.094.005.12l.048-.058 3.228-3.793c.39-.46.913-.842 1.57-1.145z"/><path d="M17.746 9.737a1.297 1.297 0 0 0-.58-.125H6.745c-.422 0-.88.114-1.375.34-.495.227-.88.503-1.154.83l-3.22 3.792c-.198.223-.297.434-.297.632 0 .192.085.329.254.412.17.083.362.124.58.124h10.423c.421 0 .88-.113 1.374-.34.495-.226.88-.503 1.154-.828l3.22-3.794c.197-.223.296-.434.296-.632a.425.425 0 0 0-.254-.412z"/></svg>