<svg width="18" height="18" viewBox="0 0 18 18" xmlns="http://www.w3.org/2000/svg"><path d="M17.1 14.94c-1.79-.95-3.164-1.482-4.387-1.686l.127-.174c.06-.06.09-.15.06-.24l-.281-1.124a6.32 6.32 0 0 0 .288-.447c1.118-.38 1.683-1.023 1.778-1.97.491-.026.915-.464.915-.959V6.09a.967.967 0 0 0-.905-.958C14.629 3.399 13.865 0 9 0S3.371 3.399 3.305 5.132a.967.967 0 0 0-.905.958v2.25c0 .51.45.96.99.96h.45a.915.915 0 0 0 .463-.129 6.56 6.56 0 0 0 1.078 2.544L5.1 12.84c0 .06 0 .15.06.24l.127.174C4.064 13.458 2.69 13.99.9 14.94c-.57.27-.9.84-.9 1.47v1.29c0 .18.12.3.3.3h17.4c.18 0 .3-.12.3-.3v-1.29c0-.6-.36-1.17-.9-1.47zm-8.098-.686L9.72 15.9H8.27l.732-1.646zm-.95 2.246h1.895l.175.9h-2.25l.18-.9zm4.098-4.2l.12.54-.306.42a.27.27 0 0 0-.054.06l-1.248 1.728-.396.543-.809-1.82c.987-.12 1.865-.622 2.57-1.343l.123-.128zm1.171-1.866c.17-.412.297-.84.378-1.271a.932.932 0 0 0 .384.13c-.052.425-.24.825-.762 1.14zM14.97 6.06v2.25c0 .18-.15.36-.36.36h-.45c-.18 0-.36-.15-.36-.36V6.06c0-.18.15-.36.36-.36h.45c.18 0 .36.15.36.36zM9 .6c1.85 0 4.961.604 5.095 4.535a.955.955 0 0 0-.355.11C13.375 2.96 11.383 1.2 9 1.2S4.626 2.96 4.26 5.244a.942.942 0 0 0-.355-.11C4.039 1.205 7.151.6 9 .6zM4.17 8.31c0 .18-.15.36-.36.36h-.45c-.18 0-.36-.15-.36-.36V6.06c0-.18.15-.36.36-.36h.45c.18 0 .36.15.36.36v2.25zM4.8 6c0-2.31 1.89-4.2 4.2-4.2 2.31 0 4.2 1.89 4.2 4.2v2.1c0 .993-.258 1.901-.677 2.668-.716.208-1.746.332-3.223.332-.18 0-.3.12-.3.3s.12.3.3.3c1.08 0 1.985-.066 2.725-.205l-.055.055c-.15.201-.31.385-.477.55-.706.658-1.549 1.057-2.36 1.096A.337.337 0 0 0 9 13.17a.287.287 0 0 0-.125.027 3.391 3.391 0 0 1-1.488-.45A4.874 4.874 0 0 1 6.03 11.55l-.09-.09-.018-.006A5.528 5.528 0 0 1 4.8 8.1V6zm3.743 7.772l-.81 1.82-.395-.544L6.09 13.32a.506.506 0 0 0-.031-.028l-.329-.452.12-.54c.04.044.082.086.123.128.705.72 1.583 1.223 2.57 1.344zM.6 16.41c0-.39.21-.75.57-.93 1.912-1.016 3.289-1.526 4.515-1.678l1.79 2.462-.227 1.136H.6v-.99zm16.8.99h-6.648l-.227-1.136 1.81-2.489c1.221.185 2.622.694 4.495 1.675.36.21.57.57.57.96v.99z"/></svg>