<svg width="29" height="29" viewBox="0 0 29 29" xmlns="http://www.w3.org/2000/svg"><path d="M27.892 5.364l-17.76-3.759a1.4 1.4 0 0 0-1.656 1.078L8.14 4.85l20.493 4.337.337-2.169a1.4 1.4 0 0 0-1.077-1.655zm-7.468 4.284a1.414 1.414 0 0 0-1.735-.982l-3.372.936L7.368 7.92l-.874 4.13-5.462 1.516a1.414 1.414 0 0 0-.98 1.735l3.077 11.092a1.414 1.414 0 0 0 1.735.981l17.657-4.9a1.414 1.414 0 0 0 .98-1.735l-.527-1.904 1.98.419a1.4 1.4 0 0 0 1.655-1.077l1.253-5.92-7.133-1.51-.305-1.1zm2.039 5.637l.436-2.064a.576.576 0 0 1 .681-.443l2.064.437c.31.066.509.372.444.681l-.437 2.064a.576.576 0 0 1-.681.443l-2.064-.437a.576.576 0 0 1-.443-.68zM1.34 14.673l4.886-1.355 11.529-3.2 1.24-.344a.266.266 0 0 1 .32.181l.147.524.456 1.645L1.76 17.163l-.602-2.169a.264.264 0 0 1 .182-.32zm21.055 6.373a.256.256 0 0 1-.026.198.253.253 0 0 1-.156.123l-17.656 4.9a.267.267 0 0 1-.32-.181l-1.796-6.47 18.158-5.04 1.107 3.991.689 2.48z"/><path d="M7.41 21.488a.576.576 0 0 0-.707-.4l-2.062.573a.576.576 0 0 0-.4.707l.573 2.062a.576.576 0 0 0 .707.4l2.062-.573a.576.576 0 0 0 .4-.707l-.572-2.062z"/></svg>