<svg width="18" height="18" viewBox="0 0 18 18" xmlns="http://www.w3.org/2000/svg"><path d="M15.92 16.111H2.08A2.082 2.082 0 0 1 0 14.031V5.595c0-1.147.933-2.08 2.08-2.08h2.824l.247-.834A1.026 1.026 0 0 1 6.16 1.89h5.68c.477 0 .899.333 1.01.795l.007.028.225.802h2.838c1.147 0 2.08.933 2.08 2.08v8.436c0 1.147-.934 2.08-2.08 2.08zM2.08 4.208c-.765 0-1.387.622-1.387 1.387v8.436c0 .765.622 1.387 1.387 1.387h13.84c.764 0 1.386-.622 1.386-1.387V5.595c0-.765-.622-1.387-1.387-1.387h-3.362l-.38-1.354a.348.348 0 0 0-.337-.271H6.16a.344.344 0 0 0-.338.272L5.42 4.208H2.08zM9 14.015a4.405 4.405 0 0 1-4.4-4.4c0-2.426 1.974-4.4 4.4-4.4s4.4 1.974 4.4 4.4-1.974 4.4-4.4 4.4zm0-8.107a3.711 3.711 0 0 0-3.707 3.707A3.71 3.71 0 0 0 9 13.322a3.71 3.71 0 0 0 3.707-3.707A3.71 3.71 0 0 0 9 5.908zm6.472-.413a.64.64 0 1 0 0 1.28.64.64 0 0 0 0-1.28z"/></svg>