<svg width="18" height="18" viewBox="0 0 18 18" xmlns="http://www.w3.org/2000/svg"><path d="M10.817 6.169l-.34.226A1.584 1.584 0 0 0 9 5.377c-.674 0-1.25.423-1.478 1.018l-.339-.226a.527.527 0 1 0-.585.877l1.018.68a1.584 1.584 0 0 0 2.768 0l1.018-.68a.527.527 0 1 0-.585-.877zM9 7.486a.528.528 0 1 1 .001-1.056A.528.528 0 0 1 9 7.486z"/><path d="M18 7.056a2.5 2.5 0 0 0-1.735-2.385c-1.606-.52-3.177-1.274-4.424-2.125A5.01 5.01 0 0 0 9 1.688a5.01 5.01 0 0 0-2.841.858C4.912 3.397 3.34 4.152 1.735 4.67A2.5 2.5 0 0 0 0 7.056c0 .504.15.99.432 1.407l1.713 2.527v1.947c0 .973.769 1.85 2.166 2.471 1.261.56 2.927.87 4.689.87s3.428-.31 4.689-.87c1.397-.62 2.166-1.498 2.166-2.47V10.99l1.713-2.527c.283-.417.432-.903.432-1.407zm-3.2 4.198v1.033A29.57 29.57 0 0 0 9 11.71a29.57 29.57 0 0 0-5.8.577v-1.033a28.407 28.407 0 0 1 11.6 0zm-1.54 3.19c-1.129.502-2.642.779-4.26.779-1.618 0-3.131-.277-4.26-.779-.717-.318-1.218-.71-1.43-1.103a28.429 28.429 0 0 1 11.38 0c-.211.392-.713.785-1.43 1.103zm3.435-6.573l-1.604 2.367a29.46 29.46 0 0 0-12.182 0L1.305 7.87a1.448 1.448 0 0 1-.25-.815c0-.632.403-1.187 1.004-1.382 1.7-.549 3.366-1.35 4.694-2.257A3.961 3.961 0 0 1 9 2.742c.823 0 1.6.234 2.247.675 1.327.907 2.995 1.708 4.694 2.257a1.45 1.45 0 0 1 .754 2.197z"/></svg>