<svg width="21" height="21" viewBox="0 0 21 21" xmlns="http://www.w3.org/2000/svg"><path d="M10.568 4.602a2.688 2.688 0 0 0-2.684 2.685 2.688 2.688 0 0 0 2.684 2.684 2.688 2.688 0 0 0 2.685-2.684 2.688 2.688 0 0 0-2.685-2.685zm0 4.602a1.92 1.92 0 0 1-1.917-1.917 1.92 1.92 0 0 1 1.917-1.918 1.92 1.92 0 0 1 1.918 1.918 1.92 1.92 0 0 1-1.918 1.917z"/><path d="M15.7 2.154A7.307 7.307 0 0 0 10.5 0a7.306 7.306 0 0 0-5.2 2.154c-2.57 2.57-2.89 7.407-.692 10.337L10.5 21l5.884-8.498C18.59 9.561 18.27 4.724 15.7 2.154zm.062 9.9L10.5 19.652l-5.27-7.61c-1.993-2.658-1.708-7.026.613-9.346A6.544 6.544 0 0 1 10.5.767a6.54 6.54 0 0 1 4.658 1.93c2.32 2.32 2.606 6.687.604 9.357z"/></svg>