<svg width="19" height="19" viewBox="0 0 19 19" xmlns="http://www.w3.org/2000/svg"><path d="M18.151 10.369l-.542-.292.117-1.636a.827.827 0 0 0-.822-.883h-.798a.827.827 0 0 0-.822.883l.029.402-3.668-1.972V3.876c0-1.136-.311-2.23-.9-3.164A1.477 1.477 0 0 0 9.502 0C9 0 8.536.266 8.256.712a5.923 5.923 0 0 0-.9 3.165V6.87L3.688 8.843l.03-.402a.827.827 0 0 0-.823-.883h-.798a.827.827 0 0 0-.822.883l.117 1.636-.542.292a1.512 1.512 0 0 0-.797 1.333v1.21c0 .187.085.36.235.473a.59.59 0 0 0 .519.1l6.55-1.817v2.31c0 .478.032.959.095 1.434l-2.538 1.34c-.38.2-.615.592-.615 1.021v.423a.76.76 0 0 0 .842.754l2.94-.329a.955.955 0 0 0 .764.379h1.28c.31 0 .59-.148.766-.382l2.97.332a.762.762 0 0 0 .589-.189.76.76 0 0 0 .253-.565v-.423c0-.43-.236-.82-.616-1.02l-2.544-1.345c.067-.49.102-.986.102-1.479v-2.261l6.55 1.817a.59.59 0 0 0 .52-.1.59.59 0 0 0 .233-.474v-1.21a1.51 1.51 0 0 0-.797-1.332zM2.037 8.326a.08.08 0 0 1 .06-.026h.798a.08.08 0 0 1 .06.026.08.08 0 0 1 .022.062l-.062.87-.806.434-.094-1.304a.08.08 0 0 1 .022-.062zm5.32 2.572l-6.562 1.82v-1.016a.77.77 0 0 1 .406-.68l.264-.142.935-.502.452-.243.774-.416 1.54-.828v1.097a.371.371 0 0 0 .741 0V8.492l1.45-.779v3.185zm-2.298 7.314c-.003 0-.007 0-.013-.004-.005-.005-.005-.01-.005-.012v-.423a.41.41 0 0 1 .22-.364l2.312-1.222.134.83v.001l.143.882-2.791.312zm5.325-.397l-.045.262a.217.217 0 0 1-.214.18h-1.28a.216.216 0 0 1-.215-.182l-.041-.257-.08-.488h1.958l-.083.485zm.518-10.722v6.837a10.127 10.127 0 0 1-.144 1.704l-.032.182-.132.772H8.39l-.124-.767-.038-.231a10.065 10.065 0 0 1-.13-1.612V3.877c0-.997.272-1.955.786-2.77.146-.232.37-.365.617-.365.246 0 .47.133.617.365.513.815.784 1.773.784 2.77v3.216zm2.839 10.316a.41.41 0 0 1 .22.364v.423c0 .003 0 .007-.006.012-.005.005-.01.004-.013.004l-2.82-.315.15-.876.145-.84 2.324 1.227zm2.305-9.083a.08.08 0 0 1 .06-.026h.798a.08.08 0 0 1 .06.026.08.08 0 0 1 .021.062l-.093 1.304-.806-.433-.062-.871a.08.08 0 0 1 .022-.062zm2.16 4.392l-6.561-1.82V7.713l1.449.78v1.495a.371.371 0 0 0 .742 0V8.891l1.54.828.773.416.452.243.935.502.264.142a.77.77 0 0 1 .406.68v1.016z"/><path d="M10.357 2.55l-.665-.402a.37.37 0 0 0-.384 0l-.664.402a.371.371 0 1 0 .384.635l.472-.286.472.286a.37.37 0 0 0 .51-.125.371.371 0 0 0-.125-.51zm-.496 4.734a.371.371 0 0 0-.37-.37h-.002a.371.371 0 0 0-.37.372l.01 4.428c0 .205.167.37.371.37h.001a.37.37 0 0 0 .37-.371l-.01-4.429zm.003 5.843a.392.392 0 0 0-.102-.19.374.374 0 0 0-.524 0 .357.357 0 0 0-.08.12.39.39 0 0 0-.03.142.366.366 0 0 0 .064.206.358.358 0 0 0 .166.137.371.371 0 0 0 .506-.415z"/></svg>