<svg width="70" height="70" viewBox="0 0 70 70" fill="none" xmlns="http://www.w3.org/2000/svg"><path d="M35 0C15.701 0 0 15.701 0 35s15.701 35 35 35 35-15.701 35-35S54.299 0 35 0zm18.157 35.964l-25.667 17.5a1.17 1.17 0 0 1-1.201.067 1.165 1.165 0 0 1-.622-1.031v-35a1.165 1.165 0 0 1 1.824-.964l25.667 17.5a1.168 1.168 0 0 1-.001 1.928z" fill="url(#a)"/><defs><linearGradient id="a" x1="35" x2="35" y2="70" gradientUnits="userSpaceOnUse"><stop stop-color="#41FB96"/><stop offset="1" stop-color="#12A053"/></linearGradient></defs></svg>