<svg width="25" height="25" viewBox="0 0 25 25"><path d="M23.239 5.283h-4.667V2.65a.53.53 0 0 0-.53-.53H6.958a.53.53 0 0 0-.53.53v2.634H1.761A1.762 1.762 0 0 0 0 7.044v8.44c0 .97.79 1.76 1.761 1.76h4.667v5.104c0 .293.238.53.53.53h11.084a.53.53 0 0 0 .53-.53v-5.103h4.667c.971 0 1.761-.79 1.761-1.761v-8.44c0-.97-.79-1.76-1.761-1.76zm-4.667 1.06h1.264v1.484h-1.264V6.343zM7.488 3.18h10.024v4.648H7.488V3.18zM5.164 6.344h1.264v1.483H5.164V6.344zm12.348 15.474H7.488v-6.982h10.024v6.982zm6.428-6.334c0 .386-.315.7-.701.7h-4.667v-1.348h.967a.53.53 0 0 0 0-1.06H5.46a.53.53 0 0 0 0 1.06h.967v1.348H1.761a.702.702 0 0 1-.7-.7v-8.44a.7.7 0 0 1 .7-.7h2.343v2.013c0 .293.237.53.53.53h15.732a.53.53 0 0 0 .53-.53V6.343h2.343c.386 0 .7.315.7.701v8.44z"/><path d="M3.36 11.37a.664.664 0 1 0 0-1.329.664.664 0 0 0 0 1.328zm8.987 7.5H9.872a.53.53 0 0 0 0 1.06h2.475a.53.53 0 0 0 0-1.06zm2.782-2.685H9.872a.53.53 0 0 0 0 1.06h5.257a.53.53 0 0 0 0-1.06z"/></svg>