<svg width="17" height="17" viewBox="0 0 17 17" xmlns="http://www.w3.org/2000/svg"><path d="M9.4 13.47a4.067 4.067 0 0 1 4.066-4.068c.473 0 .779.056 1.1.151.216.092.298-.089.32-.173.148-.549.23-1.108.23-1.672l-.021-4.898c0-.473-.271-.472-.392-.471-.87.004-1.755.004-2.687-.264C10.08 1.516 8.36 0 7.705 0c-.634 0-1.912 1.517-3.847 2.075-1.092.314-2.139.256-3.118.21-.115-.005-.3-.035-.357.365-.014.1-.09 5.005-.09 5.059C.294 12.499 6.223 17 7.706 17c.474 0 1.239-.381 2.268-1.147.137-.118.064-.197.023-.263a4.046 4.046 0 0 1-.597-2.12z"/><path d="M13.492 15.543a.42.42 0 0 1-.544.05l-2.575-1.904a.363.363 0 0 1-.075-.51l.33-.44a.373.373 0 0 1 .516-.075l1.652 1.212a.42.42 0 0 0 .544-.052l2.331-2.44a.367.367 0 0 1 .517-.019l.402.374c.148.137.156.37.02.518l-3.118 3.286z"/></svg>