<svg width="18" height="18" viewBox="0 0 18 18" xmlns="http://www.w3.org/2000/svg"><path d="M13.658 0H4.343a1.14 1.14 0 0 0-1.14 1.14v15.72c0 .629.511 1.14 1.14 1.14h9.315a1.14 1.14 0 0 0 1.14-1.14V1.14A1.14 1.14 0 0 0 13.658 0zM3.774 2.864h10.453v11.904H3.774V2.864zM4.343.571h9.315a.57.57 0 0 1 .569.569v1.344H3.774V1.14a.57.57 0 0 1 .569-.57zm9.315 16.858H4.343a.57.57 0 0 1-.569-.569v-1.71h10.452v1.711a.57.57 0 0 1-.568.569z"/><path d="M9.002 15.4a.936.936 0 0 0 0 1.87.936.936 0 0 0 0-1.87zm0 1.49a.555.555 0 1 1 0-1.11.555.555 0 0 1 0 1.11zM7.706 1.814h2.589a.19.19 0 1 0 0-.38H7.706a.19.19 0 1 0 0 .38zm-.684 0a.191.191 0 0 0 .19-.19c0-.05-.02-.099-.055-.135a.192.192 0 0 0-.27 0 .192.192 0 0 0 0 .27.192.192 0 0 0 .135.055z"/></svg>