<svg width="18" height="18" viewBox="0 0 18 18" xmlns="http://www.w3.org/2000/svg"><path d="M9 18c2.194 0 4.203-.83 5.763-2.143C13.53 13.94 11.386 12.69 9 12.69a6.822 6.822 0 0 0-5.778 3.153C4.784 17.164 6.799 18 9 18zm-1.582-4.254h3.164v1.055H7.417v-1.055z"/><path d="M3.226 9.528a5.724 5.724 0 0 0 1.499 3.38A7.884 7.884 0 0 1 9 11.639a7.88 7.88 0 0 1 4.278 1.268 5.723 5.723 0 0 0 1.496-3.378h-1.028V8.473h1.028a5.772 5.772 0 0 0-1.32-3.182l-.725.726-.746-.746.726-.726a5.772 5.772 0 0 0-3.182-1.319v1.028H8.473V3.226a5.772 5.772 0 0 0-3.182 1.32l.726.725-.746.746-.726-.726a5.772 5.772 0 0 0-1.32 3.182h1.029v1.055H3.226zm6.596-1.879c.476.29.76.795.76 1.351a1.584 1.584 0 0 1-2.933.823l-1.82-3.994 3.993 1.82z"/><path d="M9 0C4.057 0 0 4.057 0 9c0 2.362.96 4.507 2.458 6.11a7.824 7.824 0 0 1 1.41-1.575A6.778 6.778 0 0 1 2.145 9 6.863 6.863 0 0 1 9 2.145 6.863 6.863 0 0 1 15.855 9a6.777 6.777 0 0 1-1.725 4.537c.537.458 1.01.987 1.41 1.574C17.04 13.508 18 11.363 18 9c0-4.943-4.057-9-9-9z"/><path d="M9 9.527a.528.528 0 0 0 .296-.964l-1.343-.61.626 1.376c.067.103.236.198.421.198z"/></svg>