<svg width="23" height="23" viewBox="0 0 23 23" xmlns="http://www.w3.org/2000/svg"><path d="M14.633 16.902H1.237a.563.563 0 0 1-.562-.563V6.663c0-.31.252-.563.562-.563h2.828a.337.337 0 1 0 0-.674H1.237A1.237 1.237 0 0 0 0 6.662v9.678c0 .681.555 1.236 1.237 1.236h13.396a.337.337 0 0 0 0-.674zm7.129-11.477H5.413a.337.337 0 1 0 0 .674h12.478v.113a.337.337 0 1 0 .675 0v-.113h3.196c.31 0 .563.253.563.563v9.678c0 .31-.253.562-.563.562h-3.197v-.12a.337.337 0 1 0-.674 0v.12h-1.91a.337.337 0 1 0 0 .674h5.781c.682 0 1.237-.555 1.237-1.236V6.662c0-.682-.555-1.237-1.237-1.237z"/><path d="M17.893 15.657a.337.337 0 1 0 .674 0v-.45a.337.337 0 1 0-.674 0v.45zm0-3.148a.337.337 0 1 0 .674 0v-.45a.337.337 0 1 0-.674 0v.45zm0-1.575a.337.337 0 1 0 .674 0v-.45a.337.337 0 1 0-.674 0v.45zm0 3.149a.337.337 0 1 0 .674 0v-.45a.337.337 0 1 0-.674 0v.45zm0-4.723a.337.337 0 1 0 .674 0v-.45a.337.337 0 1 0-.674 0v.45zm.337-1.237a.337.337 0 0 0 .337-.337v-.45a.337.337 0 1 0-.674 0v.45c0 .186.15.337.337.337zm-4.9 2.257h-1.27L9.975 7.918a2.348 2.348 0 0 0-1.795-.832h-.378a.34.34 0 0 0-.312.466l1.17 2.828H6.95l-.79-1.194a1.616 1.616 0 0 0-1.351-.726H4.16a.34.34 0 0 0-.314.462l1.055 2.665-1.055 2.665a.34.34 0 0 0 .314.462h.648c.545 0 1.05-.272 1.351-.726l.79-1.194h1.71l-.238.574a.337.337 0 0 0 .624.258l.344-.832h1.786L9.46 14.82a1.674 1.674 0 0 1-1.152.588l.222-.535a.337.337 0 1 0-.623-.258l-.417 1.007a.34.34 0 0 0 .312.466h.378c.693 0 1.347-.303 1.795-.832l2.085-2.462h1.27c.812 0 1.569-.363 2.076-.996a.337.337 0 0 0 0-.422 2.648 2.648 0 0 0-2.075-.996zM8.309 7.764c.446.034.86.245 1.152.59l1.716 2.024H9.39L8.308 7.766zm5.023 4.355H6.768a.337.337 0 0 0-.281.151l-.89 1.344a.943.943 0 0 1-.788.424h-.152l.922-2.328a.337.337 0 0 0 0-.248l-.922-2.328h.152c.318 0 .613.158.788.423l.89 1.345a.337.337 0 0 0 .281.151h6.563c.508 0 .989.191 1.354.533a1.974 1.974 0 0 1-1.354.533z"/></svg>