<svg width="31" height="31" viewBox="0 0 31 31" xmlns="http://www.w3.org/2000/svg"><path d="M15.5 0C6.953 0 0 6.953 0 15.5 0 24.046 6.953 31 15.5 31 24.046 31 31 24.046 31 15.5 31 6.953 24.047 0 15.5 0zm6.915 11.953c.007.153.01.308.01.463 0 4.714-3.587 10.148-10.151 10.148a10.09 10.09 0 0 1-5.469-1.601 7.16 7.16 0 0 0 5.282-1.477 3.571 3.571 0 0 1-3.332-2.478 3.597 3.597 0 0 0 1.61-.06 3.568 3.568 0 0 1-2.861-3.498v-.045a3.574 3.574 0 0 0 1.616.446 3.565 3.565 0 0 1-1.587-2.97c0-.654.176-1.267.483-1.794a10.13 10.13 0 0 0 7.353 3.729 3.568 3.568 0 0 1 6.08-3.255 7.12 7.12 0 0 0 2.266-.866 3.583 3.583 0 0 1-1.571 1.974 7.094 7.094 0 0 0 2.049-.56 7.179 7.179 0 0 1-1.778 1.844z"/></svg>