<svg width="16" height="16" viewBox="0 0 16 16" xmlns="http://www.w3.org/2000/svg"><path d="M8 7.825c1.778 0 3.22-1.752 3.22-3.912C11.22 1.752 10.748 0 8 0S4.778 1.752 4.778 3.913c0 2.16 1.443 3.912 3.222 3.912zm-6.084 5.976c0-.132-.001-.037 0 0zm12.168.103c.002-.036 0-.25 0 0z"/><path d="M14.077 13.64c-.06-3.763-.551-4.836-4.313-5.515 0 0-.53.675-1.764.675s-1.764-.675-1.764-.675c-3.72.672-4.242 1.728-4.31 5.393-.006.3-.009.316-.01.28v.396S2.813 16 8 16s6.084-1.806 6.084-1.806v-.292a2.378 2.378 0 0 1-.007-.261z"/></svg>