<svg width="16" height="16" viewBox="0 0 16 16" xmlns="http://www.w3.org/2000/svg"><path d="M7.885 7.707a3.73 3.73 0 0 0 2.725-1.129 3.73 3.73 0 0 0 1.129-2.724 3.73 3.73 0 0 0-1.13-2.725A3.73 3.73 0 0 0 7.886 0 3.73 3.73 0 0 0 5.16 1.129a3.729 3.729 0 0 0-1.129 2.725c0 1.058.38 1.975 1.13 2.724a3.73 3.73 0 0 0 2.724 1.13zM5.823 1.792A2.785 2.785 0 0 1 7.885.938c.812 0 1.487.279 2.062.854.575.575.854 1.25.854 2.062 0 .812-.28 1.486-.854 2.061a2.786 2.786 0 0 1-2.062.855c-.812 0-1.487-.28-2.062-.855a2.785 2.785 0 0 1-.854-2.061c0-.813.28-1.487.854-2.062zm8.806 10.511a9.522 9.522 0 0 0-.13-1.011 7.979 7.979 0 0 0-.248-1.017 5.024 5.024 0 0 0-.418-.948 3.573 3.573 0 0 0-.63-.821 2.778 2.778 0 0 0-.905-.569 3.127 3.127 0 0 0-1.156-.209c-.163 0-.321.067-.626.266-.188.122-.408.264-.653.42a3.74 3.74 0 0 1-.844.372c-.342.111-.69.167-1.033.167-.342 0-.69-.056-1.032-.167a3.728 3.728 0 0 1-.844-.371 89.424 89.424 0 0 1-.653-.421c-.305-.199-.463-.266-.626-.266-.416 0-.805.07-1.155.21-.352.139-.657.33-.906.568-.237.228-.45.504-.63.821a5.03 5.03 0 0 0-.417.948c-.1.313-.184.655-.249 1.017a9.458 9.458 0 0 0-.13 1.011 13.69 13.69 0 0 0-.032.945c0 .835.266 1.511.79 2.01.517.492 1.2.741 2.033.741h7.704c.832 0 1.516-.25 2.033-.741.524-.498.79-1.175.79-2.01 0-.323-.012-.64-.033-.945zm-1.403 2.275c-.342.326-.796.484-1.387.484H4.135c-.592 0-1.045-.158-1.387-.483-.335-.32-.498-.755-.498-1.331 0-.3.01-.596.03-.88.02-.279.058-.585.117-.91a7.04 7.04 0 0 1 .219-.897c.083-.262.198-.521.34-.77a2.65 2.65 0 0 1 .463-.608c.16-.153.363-.28.602-.374.22-.087.469-.135.738-.142.033.017.092.05.186.112.193.126.415.27.66.426.278.176.634.336 1.06.473.436.141.88.213 1.322.213.44 0 .885-.072 1.32-.212a4.65 4.65 0 0 0 1.06-.474c.252-.16.468-.3.66-.426.096-.061.154-.095.187-.112.27.007.518.055.739.142.238.095.44.22.602.374.171.165.327.37.463.607.141.25.256.51.34.771.087.274.16.575.218.896.059.326.098.633.118.91v.001c.02.283.03.58.03.88 0 .576-.163 1.012-.498 1.33z"/></svg>