<svg width="27" height="27" viewBox="0 0 27 27" xmlns="http://www.w3.org/2000/svg"><path d="M16.293 6.039a4.906 4.906 0 0 1 2.284 3.645 3.936 3.936 0 0 0 1.673.375 3.96 3.96 0 1 0-3.957-4.02zM13.7 14.147a3.96 3.96 0 1 0 0-7.92 3.96 3.96 0 0 0 0 7.92zm1.68.27h-3.36a5.076 5.076 0 0 0-5.07 5.07v4.11l.01.064.283.088c2.668.834 4.986 1.112 6.894 1.112 3.726 0 5.886-1.063 6.02-1.13l.264-.134h.028v-4.11a5.075 5.075 0 0 0-5.07-5.07zm6.551-4.088h-3.334a4.88 4.88 0 0 1-1.506 3.399 6.024 6.024 0 0 1 4.303 5.765v1.267c3.292-.121 5.19-1.054 5.314-1.117l.265-.134H27V15.4a5.076 5.076 0 0 0-5.07-5.07zm-15.18-.27c.776 0 1.496-.226 2.107-.611A4.9 4.9 0 0 1 10.7 6.322c.004-.074.011-.147.011-.222a3.96 3.96 0 1 0-3.96 3.96zm3.557 3.669a4.883 4.883 0 0 1-1.505-3.38c-.124-.01-.246-.02-.372-.02H5.07A5.076 5.076 0 0 0 0 15.399v4.11l.01.064.283.089c2.14.668 4.051.976 5.71 1.073v-1.24a6.026 6.026 0 0 1 4.304-5.766z"/></svg>