<svg width="18" height="18" viewBox="0 0 18 18" xmlns="http://www.w3.org/2000/svg"><path d="M17.182 9.075v-2.53c0-.857-.666-1.555-1.506-1.623L13.325.82a1.616 1.616 0 0 0-2.22-.6L3.05 4.91H1.636C.734 4.91 0 5.642 0 6.545v9.818C0 17.266.734 18 1.636 18h13.91c.902 0 1.636-.734 1.636-1.636v-2.53c.475-.17.818-.62.818-1.152v-2.455c0-.532-.343-.982-.818-1.152zM14.725 4.91h-3.566l2.674-1.557.892 1.557zm-1.298-2.267L9.533 4.91H7.918l5.105-2.972.404.705zM11.517.927a.802.802 0 0 1 1.099.298v.002L6.293 4.909H4.677l6.84-3.982zm4.846 15.437a.82.82 0 0 1-.818.818H1.636a.82.82 0 0 1-.818-.818V6.546a.82.82 0 0 1 .818-.819h13.91a.82.82 0 0 1 .817.819V9H13.91a2.457 2.457 0 0 0-2.455 2.455 2.457 2.457 0 0 0 2.455 2.454h2.454v2.455zm.819-3.682a.41.41 0 0 1-.41.409H13.91a1.638 1.638 0 0 1-1.636-1.636c0-.903.733-1.637 1.636-1.637h2.864a.41.41 0 0 1 .409.41v2.454z"/><path d="M13.908 10.638a.82.82 0 0 0 0 1.636.82.82 0 0 0 0-1.636z"/></svg>