<svg width="18" height="18" viewBox="0 0 18 18" xmlns="http://www.w3.org/2000/svg"><path d="M9 12.287a1.644 1.644 0 1 0 .001 3.29A1.644 1.644 0 0 0 9 12.286zm8.807-5.747A11.485 11.485 0 0 0 9 2.425c-3.399 0-6.608 1.5-8.807 4.115A.821.821 0 1 0 1.45 7.598 9.846 9.846 0 0 1 9 4.068a9.847 9.847 0 0 1 7.549 3.53.821.821 0 1 0 1.258-1.058zM9 5.712a8.204 8.204 0 0 0-6.29 2.94.821.821 0 1 0 1.258 1.057A6.563 6.563 0 0 1 9 7.356c1.941 0 3.776.858 5.033 2.353a.819.819 0 0 0 1.157.1.821.821 0 0 0 .101-1.158A8.207 8.207 0 0 0 9 5.712zM9 9a4.921 4.921 0 0 0-3.775 1.763.821.821 0 1 0 1.259 1.058A3.282 3.282 0 0 1 9 10.644c.97 0 1.888.429 2.516 1.177a.819.819 0 0 0 1.158.1.821.821 0 0 0 .1-1.158A4.921 4.921 0 0 0 9 9z"/></svg>