<svg width="21" height="21" viewBox="0 0 21 21" xmlns="http://www.w3.org/2000/svg"><path d="M10.501 2.803c-4.438 0-8.05 3.611-8.05 8.05s3.612 8.05 8.05 8.05c4.439 0 8.05-3.611 8.05-8.05s-3.611-8.05-8.05-8.05zm0 15.4c-4.052 0-7.35-3.297-7.35-7.35 0-4.053 3.298-7.35 7.35-7.35 4.053 0 7.35 3.297 7.35 7.35 0 4.053-3.297 7.35-7.35 7.35z"/><path d="M13.88 3.546a.355.355 0 0 0-.102-.03l-.08-.01a.35.35 0 0 0-.37.482c.24.574.527 1.736.16 2.002l-.81.325a1.812 1.812 0 0 0-1.124 1.474l-.005.04a.217.217 0 0 1-.181.188.248.248 0 0 1-.27-.115l-.347-.58a.667.667 0 0 0-1.178.059c-.313.667-.705 1.63-.8 2.428-.03.248.014.498.127.723l.403.807c.144.286.363.528.636.7.251.16.717.479 1.014.837.338.409.793.673 1.281.752-.02.655.024 1.733.47 2.209a.805.805 0 0 0 .568.265 1.706 1.706 0 0 0 1.287-.374c.553-.457.836-1.26.842-2.387l.502-2.256.19.317a1.068 1.068 0 0 0 1.553.304l.765-.574a.35.35 0 0 0 .14-.28 8.079 8.079 0 0 0-4.672-7.306zm3.346 7.6a.364.364 0 0 1-.533-.105l-.363-.605a.562.562 0 0 0-.576-.267.564.564 0 0 0-.462.436l-.582 2.621a.34.34 0 0 0-.009.076c0 .909-.2 1.559-.579 1.879a.987.987 0 0 1-.754.227c-.046-.008-.08.028-.153-.05-.218-.233-.329-1.045-.268-1.976a.405.405 0 0 0-.406-.43c-.392 0-.775-.19-1.05-.521-.34-.412-.829-.762-1.179-.983a1.06 1.06 0 0 1-.382-.421l-.404-.807a.579.579 0 0 1-.058-.328c.085-.716.473-1.639.713-2.16l.318.53c.21.35.606.522 1.01.44a.915.915 0 0 0 .733-.777l.008-.056a1.11 1.11 0 0 1 .688-.904l.843-.338a.368.368 0 0 0 .052-.025c.665-.404.579-1.371.404-2.079a7.382 7.382 0 0 1 3.612 6.156l-.623.467zm-8.376 4.56l-.211-.211a2.833 2.833 0 0 0-.892-.605l-1.08-.462a1.18 1.18 0 0 1-.716-1.087v-.526a.983.983 0 0 0-1.328-.92l-1.68.63a.35.35 0 0 0-.216.418 8.095 8.095 0 0 0 6.198 5.803.35.35 0 0 0 .405-.247l.129-.448a2.389 2.389 0 0 0-.608-2.345zm-.065 2.152l-.037.132a7.398 7.398 0 0 1-5.256-4.924l1.377-.516a.277.277 0 0 1 .26.032.279.279 0 0 1 .122.233v.526a1.88 1.88 0 0 0 1.14 1.73l1.08.463c.253.108.479.262.673.455l.212.212a1.69 1.69 0 0 1 .43 1.657zM6.83 4.018a.35.35 0 0 0-.45-.08 8.038 8.038 0 0 0-3.919 6.484.35.35 0 0 0 .476.345l2.172-.856a1.06 1.06 0 0 0 .611-1.319.358.358 0 0 1 .087-.367l1.008-1.009a1.81 1.81 0 0 0 .535-1.289v-.455c0-.525-.185-1.042-.52-1.454zm-.18 1.909c0 .3-.117.582-.33.794L5.312 7.729a1.052 1.052 0 0 0-.256 1.084.36.36 0 0 1-.207.447l-1.639.65a7.337 7.337 0 0 1 3.247-5.195c.126.233.193.493.193.756v.456zM10.5 0c-.36 0-.726.019-1.084.055a.35.35 0 0 0 .071.696C9.822.717 10.162.7 10.501.7a.35.35 0 0 0 0-.7zM.838 12.149a9.91 9.91 0 0 1-.132-1.998.35.35 0 0 0-.7-.024 10.636 10.636 0 0 0 .14 2.138.35.35 0 0 0 .692-.116zm1.452 3.705a9.79 9.79 0 0 1-.917-1.778.35.35 0 0 0-.651.255c.26.665.591 1.306.982 1.905a.35.35 0 1 0 .587-.382zM1.484 5.821a.35.35 0 0 0-.467.165 10.52 10.52 0 0 0-.72 2.02.35.35 0 1 0 .68.166 9.746 9.746 0 0 1 .672-1.884.35.35 0 0 0-.165-.467zm2.609-3.199a.35.35 0 0 0-.494-.034c-.538.47-1.03.998-1.463 1.567a.35.35 0 1 0 .557.423 9.864 9.864 0 0 1 1.366-1.462.35.35 0 0 0 .034-.494zM8.79 20.154a9.765 9.765 0 0 1-1.923-.547.35.35 0 1 0-.26.65 10.44 10.44 0 0 0 2.062.586.35.35 0 0 0 .121-.69zm4.405.144a.35.35 0 0 0-.422-.26 9.823 9.823 0 0 1-1.984.261.35.35 0 0 0 .01.7h.01a10.53 10.53 0 0 0 2.126-.28.35.35 0 0 0 .26-.42zM7.753.722a.35.35 0 0 0-.44-.227c-.68.217-1.342.505-1.965.857a.35.35 0 0 0 .344.61 9.74 9.74 0 0 1 1.834-.8.35.35 0 0 0 .227-.44zM5.097 18.679a9.863 9.863 0 0 1-1.548-1.27.35.35 0 1 0-.496.495c.505.507 1.062.965 1.657 1.359a.35.35 0 1 0 .387-.584zm10.952.33a.35.35 0 0 0-.481-.118 9.83 9.83 0 0 1-.893.479.35.35 0 1 0 .3.633c.326-.154.648-.327.956-.514a.35.35 0 0 0 .118-.48zm4.878-3.471a.35.35 0 0 0-.491-.062l-3.15 2.45a.351.351 0 0 0-.136.277v1.05a.35.35 0 0 0 .7 0v-.88l3.015-2.344a.35.35 0 0 0 .062-.491z"/><path d="M17.613 17.868l-1.05-.35a.35.35 0 1 0-.221.664l1.049.35a.349.349 0 0 0 .443-.22.35.35 0 0 0-.221-.444zm2.663.554l-.7-1.75a.349.349 0 0 0-.145-.17l-1.75-1.05a.35.35 0 1 0-.36.6l1.648.99.656 1.64a.35.35 0 1 0 .65-.26z"/></svg>